<?xml version="1.0" encoding="utf-8"?>
<!-- Generator: Adobe Illustrator 24.3.0, SVG Export Plug-In . SVG Version: 6.00 Build 0)  -->
<svg version="1.1" id="Layer_1" xmlns="http://www.w3.org/2000/svg" xmlns:xlink="http://www.w3.org/1999/xlink" x="0px" y="0px"
	 viewBox="0 0 570.6 196.9" style="enable-background:new 0 0 570.6 196.9;" xml:space="preserve">
<g>
	<path d="M34.3,77.2c2.9,2.3,4.8,5.3,5.8,8.9c1,3.6,1.4,7.8,1.4,12.7c0,9.7-1.6,16.7-4.8,21.1c-3.2,4.4-8.1,6.6-14.8,6.6H3.1V73.6
		H22C27.3,73.6,31.4,74.8,34.3,77.2z M35.5,99.3c0-7.1-1.1-12.3-3.3-15.6c-2.2-3.3-5.6-4.9-10.2-4.9H9v42.4h13
		C31,121.3,35.5,113.9,35.5,99.3z"/>
	<path d="M53.3,122.7c-2.4-3-3.6-7.8-3.6-14.3c0-7.1,1.3-12.3,3.9-15.7c2.6-3.4,6.7-5.1,12.2-5.1c5.1,0,8.9,1.5,11.4,4.4
		c2.5,2.9,3.8,7.4,3.8,13.5l-0.3,4.3H55.5c0,3.2,0.3,5.6,1,7.4c0.7,1.8,1.9,3.1,3.5,3.9c1.7,0.8,4,1.2,6.9,1.2c1.5,0,3.2,0,5.1-0.1
		c1.9-0.1,3.7-0.2,5.3-0.3l2.2-0.2l0.2,4.5c-5.6,0.8-10.3,1.2-14,1.2C59.8,127.2,55.7,125.7,53.3,122.7z M75.2,105.2
		c0-4.6-0.7-7.9-2.2-9.9c-1.5-2-3.9-2.9-7.2-2.9c-3.5,0-6.1,1-7.8,3.1c-1.7,2.1-2.5,5.3-2.6,9.7H75.2z"/>
	<path d="M90.7,126.1l-2.3-0.4l0.3-5c6,0.9,10.3,1.3,13.1,1.3c3.1,0,5.3-0.5,6.8-1.5c1.5-1,2.3-2.6,2.3-4.8c0-1.6-0.4-2.8-1.1-3.6
		c-0.7-0.8-1.7-1.4-2.8-1.8c-1.1-0.4-2.8-0.7-4.8-1l-1.9-0.3c-3.1-0.5-5.4-1.1-7.2-1.8c-1.7-0.7-3-1.7-3.9-3
		c-0.9-1.3-1.3-3.1-1.3-5.4c0-4.1,1.2-7,3.7-8.8c2.5-1.7,6-2.6,10.6-2.6c3.6,0,7.3,0.3,11.1,1l2.1,0.4l-0.2,4.9
		c-5.5-0.8-9.8-1.2-12.9-1.2c-3,0-5.1,0.5-6.6,1.4c-1.4,0.9-2.2,2.3-2.2,4.3c0,1.4,0.4,2.4,1.1,3.2c0.7,0.7,1.6,1.3,2.8,1.6
		c1.1,0.3,2.8,0.7,4.8,1l1.9,0.4c3.2,0.6,5.6,1.2,7.3,1.9c1.7,0.7,3,1.8,3.9,3.2c0.8,1.4,1.3,3.3,1.3,5.7c0,4.1-1.2,7.1-3.6,9
		c-2.4,1.9-6.1,2.9-11.1,2.9C98.8,127.2,95.1,126.9,90.7,126.1z"/>
	<path d="M125.4,73h5.6v6.6h-5.6V73z M125.4,88.3h5.6v38.1h-5.6V88.3z"/>
	<path d="M143.2,141.8c-2.4-1.7-3.5-4.5-3.5-8.5c0-1.6,0.2-3,0.6-4c0.4-1,1-2,1.8-2.8c0.8-0.8,2-1.9,3.7-3.1
		c-0.7-0.5-1.2-1.1-1.6-2.1c-0.4-0.9-0.5-1.9-0.5-2.9c0-0.7,0.2-1.4,0.5-2.2c0.3-0.8,1-2.2,2.1-4.2c-4-1.8-6-5.6-6-11.4
		c0-4.4,1.2-7.7,3.6-9.9c2.4-2.2,6-3.2,10.8-3.2c2.3,0,4.9,0.3,7.8,1l11.3-0.3v4.9l-7.2-0.2c0.9,0.9,1.5,1.9,1.9,3.2
		c0.4,1.2,0.6,2.8,0.6,4.8c0,4.5-1.2,7.8-3.5,9.7c-2.3,1.9-6,2.9-11.1,2.9c-1.6,0-2.9-0.1-3.9-0.3c-0.4,1-0.7,1.9-1,2.7
		c-0.3,0.8-0.4,1.4-0.4,2c0,1.3,0.5,2.2,1.6,2.6c1,0.4,2.7,0.6,4.8,0.6h3c3.4,0,6.1,0.3,8.1,0.8c2.1,0.5,3.6,1.5,4.8,3.1
		c1.1,1.6,1.7,3.8,1.7,6.8c0,4.4-1.4,7.7-4.1,9.7c-2.7,2-7.3,3.1-13.6,3.1C149.6,144.4,145.6,143.5,143.2,141.8z M164.7,137.9
		c1.7-1.1,2.5-3.1,2.5-5.9c0-1.6-0.3-2.9-0.8-3.7c-0.6-0.8-1.5-1.4-2.8-1.7c-1.3-0.3-3.2-0.5-5.7-0.5l-8.2-0.4
		c-1.7,1.2-2.8,2.3-3.4,3.2c-0.6,0.9-0.9,2.1-0.9,3.7c0,2.6,0.8,4.5,2.3,5.5c1.6,1,4.3,1.5,8.2,1.5C160,139.6,163,139,164.7,137.9z
		 M161.2,107c1.3-1.3,2-3.4,2-6.5c0-3-0.7-5.1-2-6.4c-1.3-1.3-3.5-1.9-6.6-1.9c-3.2,0-5.4,0.6-6.8,1.9c-1.3,1.3-2,3.4-2,6.4
		c0,3,0.7,5.1,2,6.4c1.3,1.3,3.6,1.9,6.7,1.9C157.6,108.9,159.8,108.3,161.2,107z"/>
	<path d="M180.5,88.3h5.6V91c2.3-1.3,4.4-2.2,6.3-2.7c1.9-0.5,3.9-0.8,6-0.8c3.3,0,5.8,0.6,7.6,1.8c1.8,1.2,3,3.2,3.8,5.8
		c0.7,2.7,1.1,6.4,1.1,11.1v20.1h-5.6v-20c0-3.6-0.2-6.4-0.6-8.3c-0.4-1.9-1.2-3.3-2.3-4.2c-1.1-0.9-2.7-1.3-4.9-1.3
		c-1.7,0-3.5,0.2-5.3,0.6c-1.8,0.4-3.3,0.9-4.4,1.5l-1.4,0.7v31h-5.7V88.3z"/>
	<path d="M223.5,122.7c-2.4-3-3.6-7.8-3.6-14.3c0-7.1,1.3-12.3,3.9-15.7c2.6-3.4,6.7-5.1,12.2-5.1c5.1,0,8.9,1.5,11.4,4.4
		c2.5,2.9,3.8,7.4,3.8,13.5l-0.3,4.3h-25.2c0,3.2,0.3,5.6,1,7.4c0.7,1.8,1.9,3.1,3.5,3.9c1.7,0.8,4,1.2,6.9,1.2c1.5,0,3.2,0,5.1-0.1
		c1.9-0.1,3.7-0.2,5.3-0.3l2.2-0.2l0.2,4.5c-5.6,0.8-10.3,1.2-14,1.2C230,127.2,225.9,125.7,223.5,122.7z M245.4,105.2
		c0-4.6-0.7-7.9-2.2-9.9c-1.5-2-3.9-2.9-7.2-2.9c-3.5,0-6.1,1-7.8,3.1c-1.7,2.1-2.5,5.3-2.6,9.7H245.4z"/>
	<path d="M261.5,122.5c-2.1-3.1-3.1-7.9-3.1-14.5c0-7.3,1.3-12.5,3.8-15.7c2.5-3.2,6.7-4.8,12.5-4.8c2.9,0,5.9,0.3,9.1,1V71.7h5.6
		v54.8h-5.6v-2.6c-3.9,2.2-7.9,3.4-11.8,3.4C267,127.2,263.6,125.6,261.5,122.5z M277.7,121.4c1.7-0.4,3.2-0.9,4.4-1.5l1.5-0.7V93.4
		c-3.3-0.6-6.2-0.9-8.6-0.9c-4,0-6.8,1.2-8.4,3.5c-1.6,2.3-2.4,6.2-2.4,11.6c0,4.9,0.6,8.6,1.9,10.9c1.3,2.4,3.5,3.5,6.8,3.5
		C274.4,122.1,276,121.9,277.7,121.4z"/>
	<path d="M319.3,126.6l-2.1-0.2V71.7h5.6v18.5c4-1.8,7.8-2.7,11.6-2.7c3.4,0,6,0.6,7.9,1.9c1.9,1.3,3.3,3.4,4.2,6.2
		c0.9,2.8,1.3,6.7,1.3,11.4c0,5.2-0.6,9.3-1.7,12.1c-1.1,2.8-3,4.9-5.6,6.1c-2.6,1.2-6.3,1.8-11.1,1.8
		C326.2,127.1,322.8,127,319.3,126.6z M337.6,120.6c1.7-1,2.9-2.6,3.6-4.7s1-5.1,1-8.9c0-3.6-0.3-6.4-0.8-8.5s-1.5-3.5-2.8-4.5
		c-1.3-0.9-3.1-1.4-5.4-1.4c-2.8,0-6.2,0.7-10.3,2.2v26.9c3.7,0.3,6.1,0.4,7.3,0.4C333.4,122.1,335.8,121.6,337.6,120.6z"/>
	<path d="M369.5,126.4h-5.6L353,88.3h5.7l9.5,33.2h2.5l9.6-33.2h5.7l-15.9,55.1h-5.7L369.5,126.4z"/>
</g>
<g>
	<g>
		<polygon points="570.6,146.4 570.5,21.1 570.5,7.2 546.9,19.8 547,101.4 547,124.6 547.1,154.3 547.1,156.6 547.1,159 		"/>
		<polygon points="487.5,190.7 511.1,178.1 511,138.6 511,115.2 510.9,45.1 510.9,38.9 487.4,51.5 487.4,125.2 487.5,148.4 
			487.5,178.3 487.5,180.6 		"/>
		<polygon points="474.2,184.6 474.2,154.7 451.3,139.2 451.1,6.8 427.6,19.4 427.7,152.9 		"/>
		<polygon points="487.4,130.3 487.5,157.2 533.8,132.3 533.7,105.6 		"/>
	</g>
</g>
<rect x="3.1" y="133.6" width="127.9" height="4.3"/>
<rect x="180.5" y="133.6" width="179.5" height="4.3"/>
</svg>
