<?xml version="1.0" encoding="utf-8"?>
<!-- Generator: Adobe Illustrator 24.3.0, SVG Export Plug-In . SVG Version: 6.00 Build 0)  -->
<svg version="1.1" id="Layer_1" xmlns="http://www.w3.org/2000/svg" xmlns:xlink="http://www.w3.org/1999/xlink" x="0px" y="0px"
	 viewBox="0 0 411 571.765" style="enable-background:new 0 0 411 571.765;" xml:space="preserve">
<style type="text/css">
	.st0{opacity:0.64;}
	.st1{fill:#E5E5E5;}
	.st2{fill:#D8E9FF;}
	.st3{fill:#BDD6F2;}
	.st4{fill:#AAAAAA;}
	.st5{fill:#FFFFFF;}
	.st6{fill:#FF912B;}
	.st7{fill:#FC7600;}
	.st8{fill:#1E3865;}
	.st9{fill:#FDDBBA;}
	.st10{fill:#FFEEDE;}
	.st11{fill:#25468F;}
	.st12{fill:#FFB27D;}
	.st13{fill:#E2915A;}
	.st14{fill:#233862;}
	.st15{fill:#2B478B;}
	.st16{fill:#E9F3FE;}
	.st17{fill:#22407A;}
	.st18{fill:#D9E9F9;}
	.st19{fill:#C65447;}
	.st20{fill:#BA4C43;}
</style>
<g class="st0">
	<path class="st1" d="M282.87,449.163c0,0-18.451-19.614-2.624-33.347c0,0,11.663-7.819,21.474-7.681
		c0,0-12.788,23.888-8.196,25.993c4.592,2.105,12.331-27.645,12.331-27.645s27.183-3.911,36.162-0.094
		c0,0-22.459,20.181-17.49,21.091c4.968,0.91,29.315-19.005,29.315-19.005s25.613,3.149,24.975,18.715
		c-0.638,15.566-9.173,20.758-13.041,20.524c-3.868-0.234-26.779-7.787-27.123-4.611c-0.344,3.176,13.684,12.855,23.196,12.899
		c0,0-17.003,20.588-29.175,15.436c-12.172-5.152-13.606-14.145-21.185-17.192c-7.58-3.047-13.916-2.746-10.691,0.571
		s16.814,6.055,21.406,13.368c4.592,7.312,8.635,12.2-3.771,10.917c-12.405-1.284-32.848-9.373-34.205-19.655
		C282.87,449.163,282.87,449.163,282.87,449.163z"/>
	<g>
		<path class="st1" d="M366.348,428.185c0,0-69.148,0.532-83.478,20.977c0,0-2.904,10.252-12.853,19.926l-1.413,4.481
			c0,0,11.378-13.164,15.622-14.125C284.226,459.445,276.402,435.298,366.348,428.185z"/>
		<path class="st1" d="M270.017,469.089c0,0-14.309,11.642-14.432,31.267l2.7,0.116c0,0,3.796-20.462,11.982-28.774
			C278.454,463.387,270.017,469.089,270.017,469.089z"/>
	</g>
</g>
<circle class="st2" cx="204.666" cy="195.949" r="195.949"/>
<path class="st3" d="M400.615,195.949c0-10.309-0.801-20.43-2.335-30.309h-0.376v16.193l-19.22-0.089v9.994h-16.296v-61.782h-48.28
	v66.186h-14.744v-35.79h-48.28v225.999C336.895,365.504,400.615,288.174,400.615,195.949z M333.266,137.693h5.687v9.636h-5.687
	V137.693z M321.979,137.693h5.687v9.636h-5.687V137.693z"/>
<polygon class="st4" points="362.735,248.996 277.477,249.14 290.032,192.889 375.29,192.744 "/>
<polygon class="st5" points="365.431,249.063 280.173,249.208 292.724,192.884 377.982,192.74 "/>
<polygon class="st4" points="327.646,263.088 309.936,263.25 322.196,225.877 339.907,225.715 "/>
<rect x="298.999" y="261.468" class="st4" width="38.678" height="1.782"/>
<polygon class="st3" points="251.128,246.587 251.128,268.289 251.128,300.573 251.128,434.39 226.88,434.39 226.88,300.573 
	226.88,268.289 226.88,246.587 "/>
<rect x="317.312" y="169.402" class="st3" width="0.577" height="4.627"/>
<rect x="329.534" y="169.402" class="st3" width="0.577" height="4.627"/>
<rect x="357.551" y="169.402" class="st3" width="0.577" height="4.627"/>
<rect x="346.598" y="169.402" class="st3" width="0.576" height="4.627"/>
<rect x="258.104" y="214.983" class="st3" width="5.687" height="9.636"/>
<rect x="260.948" y="261.612" class="st3" width="5.687" height="9.636"/>
<path class="st6" d="M137.319,310.431c-6.287,0-11.383-5.096-11.383-11.383v-90.937c0-18.004,11.771-32.599,26.291-32.599h59.454
	c14.52,0,26.291,14.595,26.291,32.599v102.32H137.319z"/>
<path class="st7" d="M138.494,310.431c-3.447,0-6.242-2.795-6.242-6.242v-96.078c0-18.004,11.771-32.599,26.291-32.599h59.454
	c14.52,0,26.291,14.595,26.291,32.599v102.32H138.494z"/>
<path class="st6" d="M276.278,310.431h-143.38c-3.984,0-7.213-3.229-7.213-7.213l0,0c0-3.984,3.229-7.213,7.213-7.213h143.38
	c3.984,0,7.213,3.229,7.213,7.213l0,0C283.492,307.202,280.262,310.431,276.278,310.431z"/>
<g>
	<g>
		<g>
			<g>
				<polygon class="st8" points="63.032,258.914 64.817,258.914 64.817,228.187 46.561,181.603 79.157,156.344 78.064,154.933 
					44.412,181.011 63.032,228.524 				"/>
			</g>
			<path class="st8" d="M82.841,159.563L82.841,159.563c0.82-0.581,1.014-1.718,0.432-2.538l-2.715-3.829
				c-0.581-0.82-1.718-1.013-2.538-0.432l0,0c-0.82,0.581-1.014,1.718-0.432,2.538l2.715,3.829
				C80.885,159.95,82.021,160.144,82.841,159.563z"/>
			<path class="st8" d="M48.256,181.067c0-1.305-1.058-2.363-2.363-2.363c-1.305,0-2.363,1.058-2.363,2.363
				c0,1.305,1.058,2.363,2.363,2.363C47.198,183.43,48.256,182.372,48.256,181.067z"/>
		</g>
		<g>
			<path class="st8" d="M55.261,263.14h17.956v-2.308c0-1.549-1.255-2.804-2.804-2.804H58.065c-1.549,0-2.804,1.255-2.804,2.804
				V263.14z"/>
			
				<rect x="62.048" y="230.363" transform="matrix(-1 -1.224647e-16 1.224647e-16 -1 127.8675 489.2765)" class="st8" width="3.771" height="28.551"/>
		</g>
	</g>
	<g>
		<path class="st6" d="M78.8,186.063c0.085,0.095,0.17,0.19,0.258,0.279l0.018,0.02c0.083,0.093,0.166,0.182,0.252,0.268
			c2.438,2.115,10.519-1.676,18.337-8.668c7.816-6.989,12.485-14.6,10.655-17.259c-0.077-0.095-0.155-0.187-0.239-0.28l-0.018-0.02
			c-0.079-0.097-0.164-0.192-0.249-0.287c-7.166-8.013-19.47-8.698-27.481-1.534C72.321,165.748,71.634,178.05,78.8,186.063z"/>
		<path class="st9" d="M79.057,186.345l0.018,0.018c0.027,0.036,0.054,0.067,0.08,0.098c0.053,0.062,0.112,0.116,0.174,0.17
			c2.436,2.115,10.519-1.673,18.335-8.668c7.816-6.986,12.487-14.597,10.658-17.256c-0.049-0.067-0.098-0.134-0.152-0.192
			c-0.027-0.031-0.054-0.062-0.089-0.089l-0.018-0.022c-1.659-1.57-6.165-0.17-11.429,3.239c-2.24,1.45-4.617,3.266-6.973,5.371
			c-1.847,1.655-3.52,3.341-4.974,4.987C79.945,179.385,77.553,184.355,79.057,186.345z"/>
		<path class="st10" d="M84.687,174.001c1.378,1.138,3.15,1.816,5.081,1.816c4.43,0,8.021-3.591,8.021-8.021
			c0-1.521-0.424-2.944-1.155-4.153c-2.24,1.45-4.617,3.266-6.973,5.371C87.814,170.668,86.141,172.355,84.687,174.001z"/>
	</g>
</g>
<path class="st11" d="M381.545,272.164H35.595c-1.376,0-2.492-1.116-2.492-2.492v-4.101c0-1.376,1.116-2.492,2.492-2.492h345.95
	c1.376,0,2.492,1.116,2.492,2.492v4.102C384.036,271.048,382.921,272.164,381.545,272.164z"/>
<g>
	<path class="st12" d="M203.448,107.734l0.02,3.539c0,0-0.964,11.066,12.663,12.682c13.626,1.621,24.801,1.407,24.432-7.132
		c-1.227-6.612-3.427-16.875-3.517-22.346c-0.034-2.033,0.105-4.19,0.485-6.627l-26.406-0.527l-7.777,1.271L203.448,107.734z"/>
	<path class="st13" d="M203.347,88.593l0.1,19.141c2.805,1.304,5.97,2.1,9.518,2.1c12.135,0,19.979-8.899,24.079-15.358
		c-0.034-2.033,0.105-4.19,0.485-6.627l-26.406-0.527L203.347,88.593z"/>
	<path class="st12" d="M239.553,83.601c-3.063,16.488-24.338,15.947-33.532,14.91c-2.587-0.288-4.216-0.618-4.216-0.618
		c-2.917-0.779-4.545-5.375-5.301-11.394c-1.501-11.912,0.395-29.398,2.408-33.871c3.028-6.73,8.733-14.008,30.158-8.756
		C250.497,49.128,243.484,62.475,239.553,83.601z"/>
	<path class="st14" d="M256.961,571.765h-30.147c0.225-1.581,0.993-6.391,2.405-10.821c0.488-1.543,1.059-3.042,1.707-4.343
		c2.932-5.852,21.555-2.13,21.555-2.13s1.73,1.482,3.08,7.142C256.16,564.105,256.687,567.416,256.961,571.765z"/>
	<path class="st14" d="M165.86,562.249c-0.082,4.102-0.598,7.983-2.086,9.515h-59.631c0.758-2.158,2.904-5.402,9.026-6.396
		c6.956-1.126,17.8-4.475,24.13-11.168c2.257-2.377,3.936-5.183,4.672-8.46c2.806-12.491,23.197,3.827,23.197,3.827
		S165.992,556.145,165.86,562.249z"/>
	<path class="st15" d="M205.522,427.23c-0.83,4.574-1.357,8.325-1.497,11.015c-1.896,36.976-31.126,121.521-36.354,123.493
		c-8.089,3.053-20.829-3.437-27.494-5.56c-2.762-0.882-4.626-3.667-4.011-6.493c14.476-66.546,19.795-162.37,21.731-219.101
		c0.978-28.576,5.883-48.315,5.883-48.315s71.291-19.021,71.714,5.04C235.87,308.602,211.879,392.105,205.522,427.23z"/>
	<path class="st14" d="M205.522,427.23l-47.625-96.645c0.978-28.576,5.883-48.315,5.883-48.315s71.291-19.021,71.714,5.04
		C235.87,308.602,211.879,392.105,205.522,427.23z"/>
	<path class="st15" d="M189.66,287.394l37.687,273.147c0,0,16.551,3.991,29.423,0.798c0,0,11.034-145.272,10.114-180.392
		c-0.919-35.121,7.919-93.977-2.017-100.468C254.931,273.988,189.66,287.394,189.66,287.394z"/>
	<path class="st14" d="M192.335,36.934c0,0,9.431-0.725,20.553-5.562c9.029-3.925,20.418,0.398,24.116,2.346
		c-0.099-0.596-0.337-1.409-0.902-2.224c0,0,1.66,1.177,1.905,2.822c0.171,0.126,0.247,0.213,0.203,0.242c0,0,1.882-0.344,3.091,0.2
		c0,0-0.846-0.121-1.148,0.423c-0.033,0.058-0.08,0.106-0.136,0.15c14.083,6.805,15.383,29.061,10.851,34.211
		c-5.453,6.196-11.99,20.149-11.99,20.149s-2.384-3.296-1.392-8.749c0.991-5.453-3.718-5.453-9.666-7.931
		c-5.948-2.478-0.991-9.418-6.196-13.631c-5.205-4.213-24.288-1.735-24.04-4.957C190.5,51.844,192.335,37.66,192.335,36.934z"/>
	<path class="st16" d="M243.777,121.568L235.1,307.744c0,0-72.42,1.183-70.352-15.205c2.068-16.388,26.104-165.269,26.104-165.269
		L243.777,121.568L243.777,121.568z"/>
	<path class="st17" d="M269.632,227.097c-4.309,12.925,3.814,56.297,6.71,70.989c0.636,3.108,1.06,4.944,1.06,4.944
		c-10.03,16.315-46.761,16.105-46.761,16.105c-7.063-31.222-10.736-80.948-10.736-80.948l28.183-123.543l35.46,32.776
		c0,0-2.684,19.991-6.004,40.332C274.93,203.857,271.963,220.245,269.632,227.097z"/>
	<path class="st5" d="M209.363,86.313c0,0-0.688,2.127-6.056,1.35c0,0-4.507-0.651-4.172-3.023
		C199.135,84.64,203.666,83.304,209.363,86.313z"/>
	<path class="st17" d="M199.458,115.021c0,0-11.024,57.201-20.266,118.151c-4.164,27.461-7.663,80.624-7.663,80.983
		c0,1.129-13.577-3.8-16.587-18.478c-1.666-8.122,1.146-27.148,3.65-47.768c-2.372,0.529-5.79-0.822-5.79-0.822
		s-53.118-37.153-43.582-55.801c9.366-18.385,57.71-65.323,59.424-66.984c0.009-0.047,0.016-0.078,0.016-0.078
		S183.65,116.664,199.458,115.021z M160.289,232.774c1.171-11.777,1.874-23.344,1.245-33.022
		c-0.339-5.218-0.361-10.823-0.164-16.536c-0.007,0.005-0.015,0.009-0.022,0.014c0,0-0.071,0.073-0.212,0.214
		c-11.089,6.991-21.333,12.925-21.333,15.611c0,0.068,0,0.21,0.071,0.282C140.906,202.374,155.009,224.53,160.289,232.774z"/>
	<g>
		<path class="st18" d="M245.829,114.422c0.088-1.777-8.328-4.232-8.328-4.232s-9.632,13.356-25.502,13.587
			c0,0,4.522,8.802,9.852,11.081C221.852,134.857,245.305,124.973,245.829,114.422z"/>
		<g>
			<path class="st19" d="M189.712,249.606c0.389,4.348,2.384,8.399,5.596,11.358l5.05,4.653c1.267,1.168,3.261,1.006,4.327-0.347
				l6.256-7.944c1.678-2.131,2.466-4.826,2.21-7.525c-0.585-6.011-1.675-17.593-2.548-28.771c-0.71-9.057-1.279-17.856-1.322-23.208
				c-0.138-17.091,3.253-71.59,3.253-71.59l-4.098,0.214c0,0-10.176,21.155-15.504,49.94c-1.315,7.086-2.329,14.629-2.832,22.439
				C190.099,198.824,187.964,229.952,189.712,249.606z"/>
			<path class="st20" d="M189.712,249.606c0.389,4.348,2.384,8.399,5.596,11.358l5.05,4.653c1.267,1.168,3.261,1.006,4.327-0.347
				l6.256-7.944c1.678-2.131,2.466-4.826,2.21-7.525c-0.585-6.011-1.675-17.593-2.548-28.771
				c-11.322-12.72-15.911-30.3-17.671-44.645c-1.315,7.086-2.329,14.629-2.832,22.439
				C190.099,198.824,187.964,229.952,189.712,249.606z"/>
		</g>
		<path class="st18" d="M211.999,123.464c0,0-8.407-4.984-8.436-10.387c0,0-5.43-0.68-7.801,1.953c0,0-1.994,9.26,0.65,14.638
			C196.412,129.669,208.519,127.824,211.999,123.464z"/>
		<path class="st20" d="M217.706,122.663l-11.4-2.732c0,0-1.489,0.129-1.448,1.986c0.041,1.857,3.21,7.283,4.615,7.716
			C210.876,130.067,220.403,126.42,217.706,122.663z"/>
		<path class="st16" d="M244.502,113.505c0.088-1.777-5.608-5.438-5.608-5.438s-11.024,12.886-26.894,13.116
			c0,0,4.522,8.802,9.852,11.081C221.852,132.264,243.977,124.056,244.502,113.505z"/>
		<path class="st16" d="M211.999,121.183c0,0-8.503-4.507-8.532-9.911c0,0-5.132,2.258-7.504,4.891c0,0-2.195,5.845,0.449,11.224
			C196.412,127.388,208.519,125.543,211.999,121.183z"/>
	</g>
	<path class="st12" d="M149.414,250.11c0-4.745,4.173-8.555,8.865-7.842c1.303,0.198,2.479,0.735,3.292,1.818
		c3.229,4.298,6.3,16.803,0.579,17.387c-2.329,0.238-5.32-1.396-7.624-3.146c-2.34-1.779-5.113-4.564-5.113-7.503V250.11z"/>
	<path class="st14" d="M276.343,298.086c-10.384-10.808-28.325-32.069-27.689-49.517c0.848-24.44,28.89-60.816,28.89-60.816
		c-2.614,16.105-5.58,32.493-7.911,39.344C265.323,240.022,273.447,283.393,276.343,298.086z"/>
	<path class="st12" d="M276.017,255.575c0,0-7.465,3.732-11.997,1.866c-4.532-1.866-9.864-3.268-14.928,2.498
		c-5.065,5.766-6.131,9.765-5.065,11.897c1.066,2.134,12.876,1.333,14.835,0c1.96-1.332,5.059-4.614,7.025-4.042
		c5.424,1.577,9.993-2.561,12.55-5.857C279.979,259.949,275.816,258.986,276.017,255.575z"/>
	<path class="st17" d="M248.088,114.644c0,0,29.731,3.291,36.743,16.239c7.011,12.947,43.471,65.418,42.277,87.224
		c-1.194,21.806-49.735,46.258-49.735,46.258s-10.751-4.543-10.912-9.431c-0.161-4.888,33.558-34.101,31.514-39.553
		c-2.044-5.451-39.174-48.569-42.756-62.786C251.637,138.378,248.088,114.644,248.088,114.644z"/>
	<path class="st14" d="M161.348,183.23c0,0-0.071,0.073-0.212,0.214c-11.089,6.991-21.333,12.925-21.333,15.611
		c-1.483-4.734,12.927-24.512,17.589-28.537C162.125,166.42,161.348,183.23,161.348,183.23z"/>
	<path class="st14" d="M238.894,108.067c0,0-22.571,94.535-18.979,130.146c0,0,8.299-38.055,28.269-69.225
		c0,0-7.288-6.409-6.892-8.772c0,0,5.409-1.604,10.658-0.524c0,0-0.58-40.75-3.853-45.055
		C244.824,110.331,238.894,108.067,238.894,108.067z"/>
	<path class="st14" d="M203.467,111.272c0.306,0.143-22.368,92.377-24.276,121.899c0,0,2.262-52.682,2.04-67.865
		c0,0,9.374-4.963,9.374-6.704c0-1.741-10-6.449-10-6.449s6.332-32.443,9.788-36.018
		C193.849,112.559,203.467,111.272,203.467,111.272z"/>
</g>
<path class="st11" d="M371.569,269.394l-6.425-1.194l1.379,38.208c1.888-2.762,3.711-5.571,5.459-8.432L371.569,269.394z"/>
<path class="st11" d="M49.029,314.992c1.677,2.19,3.397,4.345,5.163,6.46l1.922-53.252l-6.425,1.194L49.029,314.992z"/>
</svg>
