<?xml version="1.0" encoding="utf-8"?>
<!-- Generator: Adobe Illustrator 24.3.0, SVG Export Plug-In . SVG Version: 6.00 Build 0)  -->
<svg version="1.1" id="Layer_1" xmlns="http://www.w3.org/2000/svg" xmlns:xlink="http://www.w3.org/1999/xlink" x="0px" y="0px"
	 viewBox="0 0 411 571.765" style="enable-background:new 0 0 411 571.765;" xml:space="preserve">
<style type="text/css">
	.st0{fill:#D8E9FF;}
	.st1{fill:#FFCD76;}
	.st2{fill:#73B471;}
	.st3{fill:#7AC01F;}
	.st4{fill:#F6FBFF;}
	.st5{fill:#5E9F5C;}
	.st6{fill:#FFBF65;}
	.st7{fill:#F4A671;}
	.st8{fill:#2C3A64;}
	.st9{fill:#E2AF64;}
	.st10{fill:#739AF0;}
	.st11{fill:#5885D6;}
	.st12{fill:#FFB27D;}
	.st13{fill:#F99746;}
	.st14{fill:#ED985F;}
	.st15{fill:#233862;}
	.st16{fill:#EDBD77;}
	.st17{fill:#FFCF83;}
	.st18{fill:#ED7D2B;}
	.st19{fill:#2B478B;}
	.st20{fill:#FFF2E9;}
	.st21{fill:#A7C7FF;}
	.st22{fill:#2C5CA8;}
</style>
<circle class="st0" cx="207.195" cy="213.196" r="199.96"/>
<path class="st1" d="M280.182,355.945c-34.695-3.281-54.935-6.235-136.836-24.527c-33.191-7.413-72.627-12.36-107.805-15.625
	c15.503,25.882,36.692,47.96,61.842,64.52l33.153,0.022h123.624C277.443,369.963,299.598,357.782,280.182,355.945z"/>
<path class="st2" d="M184.66,338.397c-6.205,1.035-12.363,2.102-18.454,3.199c-27.258,4.898-53.236,10.376-76.781,16.495
	c-5.277,1.372-10.643,2.58-16.079,3.651c35.441,31.955,82.371,51.414,133.849,51.414c70.601,0,132.653-36.592,168.234-91.843
	c0.195-0.307,0.393-0.613,0.586-0.921c0.414-0.65,0.818-1.307,1.225-1.962c0.841-1.368,1.676-2.739,2.49-4.125
	C318.855,319.872,249.038,327.625,184.66,338.397z"/>
<path class="st3" d="M229.315,554.698c0,0,0.396-8.832,16.409-10.348c16.013-1.516,14.133,0.14,14.133,0.14
	S258.924,557.079,229.315,554.698z"/>
<path class="st3" d="M296.539,554.126c0,0-2.622,8.443-18.497,5.849s-13.635-3.719-13.635-3.719S268.501,544.316,296.539,554.126z"
	/>
<path class="st3" d="M269.853,459.618c0,0,8.534,3.834,3.686,16.132c-4.848,12.298-7.571,10.046-7.571,10.046
	S260.294,470.834,269.853,459.618z"/>
<path class="st4" d="M27.091,252.038c0,0,7.212-17.36,24.459-15.431c0,0,25.039-28.933,51.741-3.858c0,0,28.383-6.213,49.403,5.38
	c14.014,7.729,18.643,15.837,18.643,15.837L27.091,252.038z"/>
<path class="st5" d="M214.875,334.665c-15.629,8.787-49.326,31.279-70.032,71.224c-0.147,0.276-0.29,0.557-0.434,0.838
	l-15.742-0.838l-4.924-0.262c0.474-1.334,22.432-34.62,75.536-68.257C204.427,336.443,209.631,335.54,214.875,334.665z"/>
<path class="st5" d="M156.757,405.684c0.501-1.404,26.035-40.247,89.121-75.395l4.965,3.883c0,0-48.524,21.324-74.56,72.557
	L156.757,405.684z"/>
<path class="st5" d="M202.365,405.684c0.501-1.404,26.035-40.247,89.121-75.395l4.965,3.883c0,0-48.524,21.324-74.559,72.557
	L202.365,405.684z"/>
<path class="st5" d="M377.925,317.333c-72.513,20.126-105.385,45.76-106.28,47.067l34.825,9.98
	c18.305-18.858,40.26-32.447,61.432-42.193C371.456,327.395,374.803,322.44,377.925,317.333z"/>
<path class="st6" d="M39.714,322.456c19.368,5.169,88.627,23.909,106.816,32.342c21.212,9.835,28.87-5.622,28.87-5.622
	S70.175,320.324,36.403,317.233C37.478,318.994,38.587,320.732,39.714,322.456z"/>
<path class="st6" d="M51.479,338.629c23.919,11.607,54.232,26.785,64.398,33.926c17.672,12.414,27.213-0.199,27.213-0.199
	s-61.05-29.291-99.748-44.538C45.934,331.516,48.649,335.12,51.479,338.629z"/>
<g>
	<g>
		<path class="st7" d="M197.065,265.308l-8.962,1.658c0,0-24.524-37.807-25.229-49.335c-0.678-11.008-22.779-59.186,3.094-89.266
			c1.164-1.364,2.432-2.69,3.81-3.97c0.044-0.051,0.096-0.096,0.147-0.141c0,0,0.045,0.07,0.128,0.211
			c0.525,0.877,2.58,4.591,4.989,12.801c3.771,12.834,8.435,36.657,9.535,77.803C184.578,215.069,190.596,250.297,197.065,265.308z"
			/>
		<path class="st7" d="M197.065,265.308c0,0,9.603,10.835,9.898,15.226c0.293,4.392-3.506,9.924-7.775,10.868
			c-4.27,0.944-1.603-5.831-2.244-8.552c-0.64-2.721-3.43-6.849-3.26-5.618c0.169,1.23,1.874,6.071,1.347,6.845
			c-0.527,0.774-1.904,0.898-2.425-1.687c-0.522-2.587-4.823-5.602-3.978-8.375c0.843-2.773,0.152-4.911-1.012-8.63
			c-1.164-3.72-3.115-8.183-3.115-8.183l6.922-1.476L197.065,265.308z"/>
	</g>
	<path class="st8" d="M132.242,69.623c0,0-0.212,4.573,2.529,5.467c2.743,0.895-2.825,10.763-2.388,17.428
		c0.437,6.664,3.385,9.339,3.385,9.339s-1.416-3.666-0.624-5.933c0,0-0.126,4.715,3.316,7.094c3.443,2.378,2.518,4.435,2.518,4.435
		s7.782-2.33,8-8.167c0,0,0.334,2.638,0.065,3.731c0,0,6.719-5.045,7.041-10.858c0.32-5.814-5.291-10.719-7.845-10.808
		c-2.555-0.088-8.257-5.105-8.104-7.002C140.29,72.452,132.242,69.623,132.242,69.623z"/>
	<path class="st9" d="M153.747,36.953c-4.528-6.875-22.505-3.027-40.152,8.595C95.946,57.17,85.311,72.166,89.838,79.041
		c4.528,6.875,22.505,3.027,40.154-8.595C147.639,58.824,158.275,43.828,153.747,36.953z"/>
	<path class="st10" d="M192.56,544.262l-9.517,3.543c0,0-41.334-57.329-46.423-107.769c-0.909-9.005-0.606-17.73,1.36-25.787
		c0,0-0.404-2.307-1.11-6.386c-0.327-1.904-0.731-4.196-1.189-6.822c-1.345-7.7-3.194-18.235-5.307-30.231
		c-4.864-27.606-11.165-62.895-16.059-88.837l2.564-0.824l27.745-8.951l5.734-18.211l20.659-5.439c0,0,4.616,9.029,8.741,51.675
		c0.761,5.595,1.453,11.763,1.974,18.453c1.608,20.418,1.725,45.746-1.966,74.703c-0.948,7.413-2.145,15.066-3.629,22.929
		c-1.088,5.765-1.251,13.62-0.792,22.64C177.424,480.182,192.56,544.262,192.56,544.262z"/>
	<path class="st11" d="M181.729,318.678l-44.861,89.186c-0.327-1.904-0.731-4.196-1.189-6.822c-1.345-7.7-3.194-18.235-5.307-30.231
		c-4.864-27.606-11.165-62.895-16.059-88.837l2.564-0.824l27.745-8.951l5.734-18.211l24.678-7.34c0,0,0.596,10.929,4.721,53.576
		C180.516,305.819,181.209,311.987,181.729,318.678z"/>
	<path class="st8" d="M143.81,37.735l-31.722,48.132c0,0-3.628-7.106-7.656-4.557c-6.285,3.971-19.786-9.621-16.971-28.812
		c0.186-1.255,0.405-2.447,0.651-3.579c6.33-9.119,13.359-19.273,18.402-26.412C121.083,13.708,143.81,37.735,143.81,37.735z"/>
	<path class="st12" d="M157.752,134.966c-4.439,4.067-10.204,7.707-17.677,10.537c-28.014,10.616-42.422-12.321-48.868-28.535
		c3.638-2.794,7.281-3.796,9.39-4.343c2.056-0.531,4.233-0.994,6.041-1.332c2.91-2.929,6.364-13.768,5.285-29.721l1.409,0.18
		l23.643,3.139c0,0-0.059,7.388,0.36,14.306c0.334,5.412,0.968,10.542,2.154,11.658c1.831,0.144,2.933,0.251,2.933,0.251
		s0.002,0.008,0.014,0.02C142.811,111.586,150.903,121.562,157.752,134.966z"/>
	<path class="st13" d="M170.825,151.404c-0.033,0.636-0.095,1.266-0.169,1.921c-2.281,17.845-5.589,75.458-5.589,75.458
		c5.584,10.98-77.365,36.413-80.947,25.94c-5.369-8.192-0.011-23.879,4.631-35.902c1.138-2.935,1.389-6.063,2.401-8.332
		c0.647-1.455,1.164-2.957,1.544-4.488c0.964-3.84,1.069-7.872,0.269-11.79c-2.133-10.396-5.118-20.051-7.627-27.868
		c-1.219-3.798-2.32-7.158-3.163-9.961c1.198-1.664,2.377-3.22,3.47-4.689c1.66-2.261,3.102-4.345,4.031-6.286
		c1.033-2.122,1.474-4.096,0.986-6.011c-0.372-1.447-0.878-2.893-1.488-4.305c-0.286-0.669-0.595-1.323-0.918-1.98
		c-3.409-6.886-8.514-12.488-8.514-12.488c6.671-5.525,20.855-8,20.855-8s0.229,0.761,0.616,2.002
		c1.529,4.984,5.629,17.725,7.989,19.636c2.943,2.371,43.567,3.977,44.199-0.719c0.619-4.611-10.541-21.769-10.961-22.415
		c-0.012-0.016-0.014-0.023-0.014-0.023c0.439,0.029,0.866,0.061,1.285,0.089c2.096,0.168,3.976,0.525,5.698,0.596
		c11.062,0.472,13.043,3.471,13.043,3.471C156.61,122.362,171.724,134.515,170.825,151.404z"/>
	<path class="st14" d="M136.978,84.896c0,0-0.065,7.382,0.36,14.306c-13.089,0.463-20.755-11.017-24.005-17.443L136.978,84.896z"/>
	<path class="st12" d="M141.759,91.173c0,0-30.882,2.478-32.13-16.778c-1.246-19.256-6.072-31.904,13.593-34.3
		c19.665-2.396,23.975,4.704,25.955,11.029C151.157,57.449,149.759,90.032,141.759,91.173z"/>
	<path class="st8" d="M147.576,40.475c-5.147-5.488-8.678-3.987-10.59-2.117c-17.489-8.214-27.503,6.214-27.503,6.214
		C108.294,58.521,98.834,67.07,98.834,67.07s5.856,3.122,18.633-1.045c3.903-1.273,7.267-4.319,10.059-7.931
		c-4.695,9.147-11.447,15.951-11.447,15.951c15.06-8.16,19.917-30.137,20.393-32.459c1.996,1.574,5.949,5.019,7.313,8.555
		c1.853,4.806,3.189,14.856,6.11,14.326C149.896,64.467,155.296,48.706,147.576,40.475z"/>
	<path class="st15" d="M222.342,560.239h-47.932c0,0-1.792-7.644,1.355-12.847c2.785-4.603,1.718-7.225-0.345-11.033
		c2.171,0.888,4.98,1.697,8.072,1.52c2.388-0.137,4.913-1.222,7.129-2.507c2.062,2.352,10.896,12.362,13.656,14.346
		C207.411,551.969,221.377,551.167,222.342,560.239z"/>
	<path class="st16" d="M86.802,61.973c0,0-14.361-28.587,5.708-39.888c20.069-11.301,34.759-6.864,45.801,6.957L86.802,61.973z"/>
	<path class="st17" d="M167.656,25.903c-4.133-6.623-18.583-5.555-36.027,1.59c-6.815,2.789-14.08,6.507-21.372,11.053
		C101.194,44.2,93.296,50.39,87.101,56.442C75.556,67.735,69.919,78.548,73.657,84.544c4.156,6.656,18.739,5.54,36.314-1.701
		c-1.427-1.556-3.431-2.868-5.54-1.533c-2.16,1.365-5.182,0.651-8.092-1.657c-2.148-0.353-3.739-1.218-4.613-2.614
		c-0.653-1.042-0.855-2.309-0.66-3.748c0.895-6.681,10.366-17.059,23.966-25.544c10.449-6.516,20.835-10.352,27.986-10.809
		c4.16-0.273,7.226,0.601,8.57,2.761c1.162,1.861,0.905,4.456-0.522,7.456c0.784,3.144,0.774,6.48,0.47,9.372
		C164.872,44.351,171.676,32.346,167.656,25.903z"/>
	<path class="st18" d="M120.967,212.214c-11.946,3.829-23.579,5.473-32.808,6.139c1.138-2.935,1.98-5.595,2.992-7.864
		c0.647-1.455,1.164-2.957,1.544-4.488c0.964-3.84,1.069-7.872,0.269-11.79c-2.133-10.396-7.794-28.132-10.303-35.949
		c6.703-14.949,13.628-6.795,13.628-6.795s20.257,9.085,28.88,25.832C133.793,194.045,131.277,208.911,120.967,212.214z"/>
	<path class="st10" d="M95.112,113.767c0,0,19.292,12.327,24.223,38.318l5.834-1.852c0,0-2.259-18.553-24.572-37.607L95.112,113.767
		z"/>
	<path class="st10" d="M163.245,152.744l-6.108,0.401c1.223-22.535-10.086-37.919-13.429-41.95c2.095,0.168,3.994,0.371,5.698,0.596
		C165.405,134.938,163.245,152.744,163.245,152.744z"/>
	<path class="st10" d="M170.825,250.417l4.334-1.867l-4.258-64.574c0,0-4.137-29.361-4.199-34.493
		c-0.061-5.132-4.205-7.633-4.205-7.633s-30.409,1.603-38.98,2.086c-8.572,0.482-7.71,5.36-7.71,5.36s3.737,15.602,4.114,17.207
		c5.771,24.52-27.227,39.5-27.227,39.5s-5.352,13.853-9.505,27.12c-7.119,22.747-0.761,55.384-0.761,55.384
		c1.08,17.335,3.053,90.996,5.114,112.794c0.745,7.9,1.397,13.521,1.664,15.767c0.005,0.011,0.005,0.016,0.005,0.022
		c0.082,0.686-0.157,1.333-0.506,1.93c-3.034,5.149-5.545,10.51-7.607,15.996c-20.226,53.898,3.116,120.275,3.116,120.275
		l6.056-2.441c0,0,13.283-73.869,24.076-106.503c1.833-5.535,3.589-9.885,5.199-12.484c4.691-7.573,9.047-19.948,13-34.667
		c7.471-27.827,13.484-64.027,17.485-91.968c0.552,0.026,6.306-39.163,20.725-56.438C170.883,250.636,170.9,250.513,170.825,250.417
		z"/>
	<g>
		<g>
			<path class="st18" d="M119.096,149.818c-0.429-1.348,0.317-2.789,1.666-3.217c1.349-0.429,2.789,0.318,3.217,1.666
				c0.428,1.348-0.318,2.789-1.667,3.217C120.964,151.913,119.524,151.167,119.096,149.818z"/>
			<path class="st13" d="M119.535,149.679c-0.428-1.348,0.318-2.789,1.666-3.217c1.348-0.428,2.788,0.318,3.217,1.666
				c0.428,1.348-0.318,2.789-1.667,3.217C121.403,151.773,119.963,151.027,119.535,149.679z"/>
		</g>
		<path class="st19" d="M120.387,148.901c0.001-0.205,0.168-0.372,0.373-0.371c0.206,0.001,0.372,0.167,0.372,0.373
			c0,0.205-0.167,0.372-0.373,0.371C120.553,149.274,120.387,149.107,120.387,148.901z"/>
		<path class="st19" d="M122.819,148.905c0-0.206,0.167-0.372,0.373-0.372c0.206,0.001,0.372,0.168,0.372,0.373
			c-0.001,0.205-0.168,0.372-0.373,0.372C122.985,149.278,122.819,149.11,122.819,148.905z"/>
	</g>
	<g>
		<g>
			<path class="st18" d="M156.802,146.564c-0.429-1.349,0.317-2.789,1.665-3.217c1.349-0.429,2.789,0.318,3.217,1.666
				c0.428,1.349-0.317,2.789-1.666,3.217C158.669,148.658,157.229,147.912,156.802,146.564z"/>
			<path class="st13" d="M157.24,146.424c-0.428-1.348,0.318-2.788,1.667-3.217c1.348-0.428,2.788,0.318,3.216,1.666
				c0.428,1.348-0.318,2.789-1.666,3.217C159.108,148.519,157.668,147.773,157.24,146.424z"/>
		</g>
		<path class="st19" d="M158.094,145.646c0-0.205,0.167-0.372,0.373-0.371c0.205,0.001,0.372,0.167,0.372,0.373
			c-0.001,0.205-0.168,0.372-0.373,0.371C158.26,146.019,158.094,145.852,158.094,145.646z"/>
		<path class="st19" d="M160.525,145.651c0-0.206,0.167-0.372,0.372-0.372c0.206,0.001,0.373,0.168,0.372,0.373
			c0,0.205-0.167,0.372-0.373,0.371C160.691,146.023,160.524,145.856,160.525,145.651z"/>
	</g>
	<path class="st8" d="M91.067,73.291c0,0-0.212,4.573,2.529,5.467c2.743,0.894-2.825,10.763-2.388,17.427
		c0.437,6.664,3.385,9.34,3.385,9.34s-1.416-3.666-0.624-5.933c0,0-0.126,4.715,3.316,7.094c3.443,2.378,2.519,4.435,2.519,4.435
		s7.781-2.33,7.999-8.167c0,0,0.333,2.637,0.065,3.73c0,0,6.719-5.045,7.039-10.858c0.321-5.813-5.288-10.719-7.844-10.807
		c-2.555-0.089-8.257-5.105-8.102-7.002C99.115,76.12,91.067,73.291,91.067,73.291z"/>
	<path class="st12" d="M91.102,226.456c0,0,9.242,5.833,10.596,5.782c3.172-0.119,9.432-7.045,14.644-3.843
		s10.317,8.54,8.512,10.675c-1.806,2.135-7.926-0.384-10.863,0.043c-2.937,0.427-10.175,4.026-15.282,2.332
		c-4.91-1.628-15.521-8.324-15.521-8.324L91.102,226.456z"/>
	<path class="st12" d="M79.741,120.621c0,0-34.408,40.637-45.795,63.531c0,0,13.692,29.808,58.073,54.024
		c0,0,1.971-0.431,4.983-2.583c4.695-3.354-0.508-5.81-1.536-6.476c-11.26-7.294-30.933-38.71-31.502-41.437
		c-0.57-2.727,24.658-27.175,32.325-36.215C103.956,142.426,91.659,115.964,79.741,120.621z"/>
	<path class="st20" d="M132.238,80.412c0,0,4.603,2.79,7.877,2.465c3.243-0.321,5.01-4.233,5.01-4.233
		S138.833,77.715,132.238,80.412z"/>
	<path class="st13" d="M79.741,120.621l-15.456,15.1c0,0,3.529,22.296,26.922,25.208c0,0,19.2-15.372,7.728-31.385
		C87.464,113.532,79.741,120.621,79.741,120.621z"/>
	<path class="st13" d="M162.451,115.259c0,0,11.907,5.506,15.751,24.735c0,0-0.221,6.109-9.397,9.252
		c0,0-12.055-32.473-10.34-33.987C160.182,113.746,162.451,115.259,162.451,115.259z"/>
	<path class="st12" d="M101.698,232.239c0,0,0.522-2.245,2.508-3.13c1.986-0.884,3.835-2.813,3.996-2.25
		c0.161,0.563,0.286,1.502-0.742,2.639C106.433,230.637,104.683,232.545,101.698,232.239z"/>
	<path class="st15" d="M119.428,560.239H71.496c0,0-1.148-7.305,1.355-12.847c2.399-5.319,6.156-7.735,5.256-14.169
		c3.047,3.135,8.01,6.647,14.939,5.715c0.85,1.376,5.482,8.743,8.317,10.781C104.496,551.969,118.463,551.167,119.428,560.239z"/>
</g>
<polygon class="st21" points="241.85,241.113 245.497,245.913 254.335,212.474 "/>
<polygon class="st21" points="252.968,246.66 247.069,247.904 273.519,270.19 "/>
<polygon class="st21" points="240.598,252.218 244.088,247.302 209.537,248.868 "/>
<ellipse transform="matrix(0.9239 -0.3827 0.3827 0.9239 -75.8641 112.7378)" class="st21" cx="245.453" cy="247.066" rx="2.694" ry="2.694"/>
<path class="st21" d="M240.353,330.083c1.485,0.414,2.701-0.801,3.916-0.801l2.428-80.175h-2.204L240.353,330.083z"/>
<g>
	<g>
		<path class="st1" d="M335.955,225.861c0,0,8.889,18.646,3.476,27C334.017,261.216,329.552,237.375,335.955,225.861z"/>
		<path class="st1" d="M341.499,304.527c0,0-8.89-18.646-3.476-27.001C343.437,269.173,347.902,293.014,341.499,304.527z"/>
	</g>
	<g>
		<path class="st1" d="M318.155,231.556c0,0,16.477,12.459,15.517,22.367C332.714,263.831,317.772,244.724,318.155,231.556z"/>
		<path class="st1" d="M359.299,298.833c0,0-16.477-12.459-15.517-22.368C344.739,266.558,359.682,285.665,359.299,298.833z"/>
	</g>
	<g>
		<path class="st1" d="M305.129,244.967c0,0,20.337,3.624,23.979,12.889C332.75,267.12,310.764,256.876,305.129,244.967z"/>
		<path class="st1" d="M372.325,286.244c0,0-20.337-3.624-23.979-12.888C344.704,264.091,366.69,274.337,372.325,286.244z"/>
	</g>
	<g>
		<path class="st1" d="M300.916,277.659c0,0,16.293-12.699,25.616-9.214C335.857,271.93,313.54,281.43,300.916,277.659z"/>
		<path class="st1" d="M378.066,261.89c0,0-18.231,9.714-26.818,4.679C342.661,261.535,366.278,256.008,378.066,261.89z"/>
	</g>
	<g>
		<path class="st1" d="M309.899,291.852c0,0,10.129-18.003,20.076-18.385C339.922,273.084,322.999,290.459,309.899,291.852z"/>
		<path class="st1" d="M371.03,242.032c0,0-10.129,18.003-20.077,18.385C341.006,260.8,357.929,243.424,371.03,242.032z"/>
	</g>
	<g>
		<path class="st1" d="M323.232,302.464c0,0,1.331-20.613,10.13-25.268C342.162,272.543,334.436,295.535,323.232,302.464z"/>
		<path class="st1" d="M356.749,231.081c0,0-1.332,20.615-10.132,25.268C337.818,261.002,345.544,238.01,356.749,231.081z"/>
	</g>
	<path class="st1" d="M299.872,264.358c0,0,19.297-7.371,27.191-1.307C334.958,269.116,310.835,271.661,299.872,264.358z"/>
	<circle class="st22" cx="338.727" cy="265.606" r="14.378"/>
</g>
<path class="st5" d="M311.416,326.449c-2.182-1.902-3.825-17.414-17.197-21.297c-13.372-3.882-22.863-4.628-22.863-4.628
	s11.589,20.158,20.03,23.177C299.827,326.721,311.416,326.449,311.416,326.449z"/>
<path class="st5" d="M303.747,388.329c0.854-0.472,1.707-0.944,2.553-1.427c1.469-32.081,7.076-79.853,24.815-112.823l-2.28-1.226
	C310.703,306.553,305.143,355.813,303.747,388.329z"/>
<path class="st4" d="M198.546,107.757c0,0,10.187-24.52,34.548-21.796c0,0,35.368-40.868,73.083-5.449
	c0,0,40.091-8.776,69.781,7.599c19.795,10.918,26.333,22.37,26.333,22.37L198.546,107.757z"/>
</svg>
