<?xml version="1.0" encoding="utf-8"?>
<!-- Generator: Adobe Illustrator 24.3.0, SVG Export Plug-In . SVG Version: 6.00 Build 0)  -->
<svg version="1.1" id="Layer_1" xmlns="http://www.w3.org/2000/svg" xmlns:xlink="http://www.w3.org/1999/xlink" x="0px" y="0px"
	 viewBox="0 0 191 463" style="enable-background:new 0 0 191 463;" xml:space="preserve">
<style type="text/css">
	.st0{fill:#FFB27D;}
	.st1{fill:#E2915A;}
	.st2{fill:#233862;}
	.st3{fill:#2B478B;}
	.st4{fill:#E9F3FE;}
	.st5{fill:#22407A;}
	.st6{fill:#FFFFFF;}
	.st7{fill:#D9E9F9;}
	.st8{fill:#C65447;}
	.st9{fill:#BA4C43;}
</style>
<g>
	<path class="st0" d="M82.604,69.443l0.016,2.971c0,0-0.809,9.29,10.631,10.647c11.439,1.361,20.821,1.181,20.511-5.988
		c-1.03-5.551-2.877-14.167-2.953-18.76c-0.028-1.707,0.088-3.518,0.407-5.563l-22.168-0.443l-6.529,1.067L82.604,69.443z"/>
	<path class="st1" d="M82.519,53.374l0.084,16.069c2.355,1.095,5.012,1.763,7.99,1.763c10.188,0,16.773-7.471,20.215-12.893
		c-0.028-1.707,0.088-3.518,0.407-5.563l-22.168-0.443L82.519,53.374z"/>
	<path class="st0" d="M112.914,49.183c-2.572,13.842-20.432,13.387-28.151,12.517c-2.172-0.242-3.539-0.519-3.539-0.519
		c-2.449-0.654-3.816-4.512-4.451-9.565c-1.26-10,0.332-24.68,2.021-28.435c2.542-5.65,7.332-11.76,25.318-7.351
		C122.102,20.243,116.214,31.448,112.914,49.183z"/>
	<path class="st2" d="M127.528,459H102.22c0.189-1.327,0.834-5.365,2.019-9.085c0.41-1.295,0.889-2.554,1.433-3.646
		c2.461-4.913,18.096-1.788,18.096-1.788s1.452,1.244,2.586,5.996C126.856,452.57,127.298,455.35,127.528,459z"/>
	<path class="st2" d="M51.048,451.012c-0.069,3.443-0.502,6.702-1.752,7.988h-50.06c0.636-1.812,2.438-4.535,7.577-5.37
		c5.84-0.945,14.943-3.757,20.258-9.375c1.894-1.996,3.305-4.351,3.922-7.102c2.355-10.486,19.474,3.213,19.474,3.213
		S51.159,445.887,51.048,451.012z"/>
	<path class="st3" d="M84.345,337.662c-0.697,3.84-1.139,6.989-1.256,9.247c-1.592,31.041-26.13,102.018-30.519,103.673
		c-6.791,2.563-17.486-2.885-23.081-4.667c-2.318-0.74-3.883-3.079-3.368-5.451c12.152-55.866,16.618-136.31,18.243-183.937
		c0.821-23.989,4.939-40.561,4.939-40.561s59.849-15.968,60.204,4.231C109.822,238.073,89.682,308.174,84.345,337.662z"/>
	<path class="st2" d="M84.345,337.662l-39.981-81.134c0.821-23.989,4.939-40.561,4.939-40.561s59.849-15.968,60.204,4.231
		C109.822,238.073,89.682,308.174,84.345,337.662z"/>
	<path class="st3" d="M71.029,220.269l31.639,229.308c0,0,13.894,3.35,24.701,0.67c0,0,9.263-121.956,8.491-151.44
		c-0.772-29.485,6.648-78.894-1.693-84.343C125.825,209.015,71.029,220.269,71.029,220.269z"/>
	<path class="st2" d="M73.275,10.007c0,0,7.917-0.609,17.255-4.669c7.579-3.295,17.141,0.334,20.245,1.969
		c-0.083-0.5-0.283-1.183-0.757-1.867c0,0,1.394,0.988,1.599,2.369c0.143,0.106,0.208,0.179,0.171,0.203c0,0,1.58-0.289,2.595,0.168
		c0,0-0.71-0.102-0.964,0.355c-0.027,0.048-0.067,0.089-0.114,0.126c11.823,5.712,12.914,24.397,9.11,28.72
		c-4.577,5.202-10.066,16.916-10.066,16.916s-2.001-2.767-1.169-7.345c0.832-4.577-3.121-4.577-8.115-6.658
		c-4.993-2.08-0.832-7.906-5.201-11.443c-4.369-3.537-20.39-1.456-20.182-4.161C71.734,22.523,73.275,10.616,73.275,10.007z"/>
	<path class="st4" d="M116.46,81.057l-7.284,156.296c0,0-60.797,0.993-59.061-12.765C51.85,210.83,72.029,85.843,72.029,85.843
		L116.46,81.057L116.46,81.057z"/>
	<path class="st5" d="M138.166,169.649c-3.617,10.851,3.202,47.261,5.633,59.596c0.534,2.609,0.89,4.151,0.89,4.151
		c-8.42,13.697-39.256,13.52-39.256,13.52c-5.93-26.211-9.013-67.956-9.013-67.956l23.66-103.715l29.769,27.516
		c0,0-2.254,16.782-5.041,33.859C142.613,150.14,140.123,163.897,138.166,169.649z"/>
	<path class="st6" d="M87.57,51.46c0,0-0.577,1.785-5.084,1.134c0,0-3.783-0.547-3.503-2.538
		C78.983,50.056,82.787,48.934,87.57,51.46z"/>
	<path class="st5" d="M79.254,75.561c0,0-9.254,48.021-17.013,99.188c-3.496,23.054-6.433,67.684-6.433,67.986
		c0,0.948-11.398-3.19-13.925-15.513c-1.399-6.818,0.962-22.791,3.064-40.102c-1.991,0.444-4.861-0.69-4.861-0.69
		s-44.593-31.19-36.587-46.846c7.863-15.435,48.448-54.839,49.887-56.233c0.008-0.039,0.013-0.066,0.013-0.066
		S65.983,76.94,79.254,75.561z M46.372,174.416c0.983-9.887,1.573-19.597,1.045-27.722c-0.285-4.381-0.303-9.086-0.138-13.882
		c-0.006,0.004-0.012,0.008-0.018,0.011c0,0-0.059,0.061-0.178,0.18c-9.31,5.869-17.909,10.851-17.909,13.105
		c0,0.057,0,0.176,0.06,0.237C30.1,148.895,41.939,167.494,46.372,174.416z"/>
	<g>
		<path class="st7" d="M118.183,75.058c0.074-1.492-6.991-3.553-6.991-3.553s-8.086,11.212-21.409,11.406
			c0,0,3.796,7.389,8.271,9.302C98.054,92.213,117.743,83.916,118.183,75.058z"/>
		<g>
			<path class="st8" d="M71.072,188.546c0.327,3.65,2.001,7.051,4.698,9.535l4.24,3.906c1.064,0.981,2.738,0.845,3.633-0.292
				l5.252-6.669c1.408-1.789,2.07-4.052,1.855-6.317c-0.492-5.046-1.407-14.769-2.139-24.153c-0.596-7.603-1.074-14.99-1.11-19.484
				c-0.115-14.348,2.731-60.1,2.731-60.1l-3.44,0.179c0,0-8.543,17.76-13.016,41.925c-1.104,5.949-1.955,12.281-2.378,18.838
				C71.398,145.914,69.605,172.046,71.072,188.546z"/>
			<path class="st9" d="M71.072,188.546c0.327,3.65,2.001,7.051,4.698,9.535l4.24,3.906c1.064,0.981,2.738,0.845,3.633-0.292
				l5.252-6.669c1.408-1.789,2.07-4.052,1.855-6.317c-0.492-5.046-1.407-14.769-2.139-24.153
				c-9.505-10.679-13.357-25.437-14.834-37.48c-1.104,5.949-1.955,12.281-2.378,18.838
				C71.398,145.914,69.605,172.046,71.072,188.546z"/>
		</g>
		<path class="st7" d="M89.783,82.649c0,0-7.058-4.184-7.082-8.72c0,0-4.558-0.571-6.549,1.64c0,0-1.674,7.774,0.546,12.289
			C76.697,87.858,86.861,86.309,89.783,82.649z"/>
		<path class="st9" d="M94.574,81.976l-9.57-2.294c0,0-1.25,0.108-1.216,1.668c0.035,1.559,2.695,6.114,3.874,6.478
			C88.84,88.192,96.838,85.13,94.574,81.976z"/>
		<path class="st4" d="M117.069,74.288c0.074-1.492-4.708-4.565-4.708-4.565s-9.255,10.818-22.578,11.011
			c0,0,3.796,7.389,8.271,9.302C98.054,90.036,116.629,83.146,117.069,74.288z"/>
		<path class="st4" d="M89.783,80.734c0,0-7.138-3.784-7.162-8.32c0,0-4.308,1.896-6.3,4.106c0,0-1.842,4.907,0.377,9.423
			C76.697,85.943,86.861,84.394,89.783,80.734z"/>
	</g>
	<path class="st0" d="M37.242,188.969c0-3.984,3.503-7.182,7.442-6.584c1.094,0.166,2.081,0.617,2.764,1.526
		c2.711,3.608,5.289,14.106,0.486,14.596c-1.955,0.2-4.466-1.172-6.4-2.641c-1.965-1.493-4.292-3.831-4.292-6.299V188.969z"/>
	<path class="st2" d="M143.799,229.245c-8.717-9.073-23.779-26.922-23.245-41.57c0.712-20.517,24.253-51.056,24.253-51.056
		c-2.194,13.52-4.685,27.278-6.641,33.03C134.549,180.5,141.368,216.91,143.799,229.245z"/>
	<path class="st0" d="M143.526,193.557c0,0-6.267,3.133-10.071,1.567c-3.805-1.567-8.281-2.743-12.533,2.097
		c-4.252,4.841-5.147,8.198-4.252,9.987c0.895,1.791,10.809,1.119,12.454,0c1.645-1.118,4.247-3.874,5.897-3.393
		c4.553,1.324,8.389-2.15,10.536-4.917C146.852,197.229,143.357,196.42,143.526,193.557z"/>
	<path class="st5" d="M120.08,75.244c0,0,24.959,2.763,30.846,13.633c5.886,10.869,36.494,54.919,35.491,73.225
		c-1.002,18.306-41.753,38.834-41.753,38.834s-9.025-3.814-9.161-7.917c-0.135-4.104,28.172-28.628,26.456-33.205
		c-1.716-4.576-32.886-40.774-35.894-52.709C123.059,95.169,120.08,75.244,120.08,75.244z"/>
	<path class="st2" d="M47.261,132.823c0,0-0.059,0.061-0.178,0.18c-9.31,5.869-17.909,10.851-17.909,13.105
		c-1.245-3.974,10.852-20.578,14.766-23.957C47.913,118.711,47.261,132.823,47.261,132.823z"/>
	<path class="st2" d="M112.361,69.723c0,0-18.948,79.362-15.933,109.258c0,0,6.967-31.947,23.732-58.115
		c0,0-6.118-5.381-5.786-7.364c0,0,4.541-1.347,8.948-0.44c0,0-0.487-34.21-3.235-37.824
		C117.34,71.624,112.361,69.723,112.361,69.723z"/>
	<path class="st2" d="M82.62,72.414c0.257,0.12-18.778,77.551-20.38,102.335c0,0,1.899-44.227,1.712-56.973
		c0,0,7.87-4.166,7.87-5.628c0-1.462-8.395-5.414-8.395-5.414s5.316-27.236,8.217-30.238C74.546,73.494,82.62,72.414,82.62,72.414z"
		/>
</g>
</svg>
