<?xml version="1.0" encoding="utf-8"?>
<!-- Generator: Adobe Illustrator 24.3.0, SVG Export Plug-In . SVG Version: 6.00 Build 0)  -->
<svg version="1.1" id="Layer_1" xmlns="http://www.w3.org/2000/svg" xmlns:xlink="http://www.w3.org/1999/xlink" x="0px" y="0px"
	 viewBox="0 0 167 463" style="enable-background:new 0 0 167 463;" xml:space="preserve">
<style type="text/css">
	.st0{fill:#F4A671;}
	.st1{fill:#2C3A64;}
	.st2{fill:#E2AF64;}
	.st3{fill:#739AF0;}
	.st4{fill:#5885D6;}
	.st5{fill:#FFB27D;}
	.st6{fill:#F99746;}
	.st7{fill:#ED985F;}
	.st8{fill:#233862;}
	.st9{fill:#EDBD77;}
	.st10{fill:#FFCF83;}
	.st11{fill:#ED7D2B;}
	.st12{fill:#2B478B;}
	.st13{fill:#FFF2E9;}
</style>
<g>
	<g>
		<path class="st0" d="M140.199,211.879l-7.373,1.364c0,0-20.175-31.103-20.755-40.586c-0.558-9.056-18.739-48.69,2.546-73.436
			c0.958-1.122,2.001-2.213,3.135-3.266c0.036-0.042,0.079-0.079,0.121-0.116c0,0,0.037,0.058,0.106,0.174
			c0.432,0.722,2.123,3.777,4.104,10.531c3.103,10.558,6.939,30.156,7.844,64.006C129.926,170.549,134.877,199.531,140.199,211.879z
			"/>
		<path class="st0" d="M140.199,211.879c0,0,7.9,8.913,8.142,12.526c0.241,3.614-2.884,8.164-6.396,8.941
			c-3.512,0.777-1.319-4.797-1.846-7.036c-0.527-2.239-2.821-5.634-2.682-4.622s1.542,4.995,1.108,5.631
			c-0.434,0.637-1.566,0.739-1.995-1.388c-0.429-2.128-3.967-4.609-3.273-6.89c0.694-2.281,0.125-4.04-0.833-7.099
			c-0.958-3.06-2.563-6.732-2.563-6.732l5.694-1.214L140.199,211.879z"/>
	</g>
	<path class="st1" d="M86.871,50.896c0,0-0.175,3.762,2.081,4.497c2.257,0.736-2.324,8.854-1.965,14.337
		c0.359,5.482,2.785,7.683,2.785,7.683s-1.165-3.016-0.514-4.881c0,0-0.104,3.879,2.728,5.836c2.832,1.956,2.071,3.648,2.071,3.648
		s6.402-1.917,6.581-6.718c0,0,0.275,2.17,0.053,3.069c0,0,5.528-4.151,5.792-8.933c0.263-4.783-4.352-8.818-6.454-8.891
		c-2.102-0.073-6.792-4.2-6.667-5.76C93.491,53.224,86.871,50.896,86.871,50.896z"/>
	<path class="st2" d="M104.563,24.019c-3.725-5.656-18.514-2.49-33.032,7.071c-14.519,9.561-23.268,21.897-19.544,27.554
		c3.725,5.656,18.514,2.49,33.033-7.071C99.538,42.012,108.287,29.676,104.563,24.019z"/>
	<path class="st3" d="M136.492,441.365l-7.829,2.915c0,0-34.004-47.163-38.191-88.657c-0.748-7.408-0.499-14.586,1.118-21.214
		c0,0-0.333-1.898-0.914-5.254c-0.269-1.566-0.601-3.452-0.978-5.612c-1.106-6.335-2.627-15.002-4.366-24.87
		c-4.001-22.71-9.185-51.741-13.212-73.083l2.109-0.678l22.825-7.364l4.717-14.981l16.995-4.475c0,0,3.797,7.428,7.191,42.511
		c0.626,4.603,1.196,9.677,1.624,15.181c1.322,16.797,1.419,37.634-1.617,61.455c-0.78,6.098-1.764,12.394-2.986,18.863
		c-0.895,4.743-1.029,11.204-0.652,18.625C124.041,388.648,136.492,441.365,136.492,441.365z"/>
	<path class="st4" d="M127.583,255.785l-36.906,73.37c-0.269-1.566-0.601-3.452-0.978-5.612c-1.106-6.335-2.627-15.002-4.366-24.87
		c-4.001-22.71-9.185-51.741-13.212-73.083l2.109-0.678l22.825-7.364l4.717-14.981l20.302-6.039c0,0,0.491,8.991,3.884,44.075
		C126.585,245.207,127.154,250.281,127.583,255.785z"/>
	<path class="st1" d="M96.387,24.663L70.291,64.259c0,0-2.985-5.846-6.298-3.749c-5.17,3.267-16.277-7.915-13.961-23.702
		c0.153-1.032,0.334-2.013,0.536-2.945c5.207-7.502,10.99-15.855,15.139-21.728C77.691,4.897,96.387,24.663,96.387,24.663z"/>
	<path class="st5" d="M107.857,104.651c-3.652,3.346-8.394,6.341-14.542,8.668c-23.047,8.733-34.899-10.136-40.202-23.474
		c2.993-2.298,5.99-3.123,7.725-3.573c1.691-0.437,3.482-0.818,4.97-1.095c2.394-2.41,5.236-11.326,4.348-24.45l1.159,0.148
		l19.451,2.582c0,0-0.049,6.078,0.296,11.769c0.275,4.453,0.796,8.673,1.772,9.591c1.506,0.118,2.413,0.206,2.413,0.206
		s0.002,0.006,0.012,0.016C95.566,85.418,102.223,93.625,107.857,104.651z"/>
	<path class="st6" d="M118.612,118.174c-0.028,0.523-0.078,1.042-0.139,1.581c-1.877,14.681-4.598,62.077-4.598,62.077
		c4.594,9.033-63.645,29.956-66.592,21.34c-4.417-6.739-0.009-19.644,3.81-29.536c0.936-2.414,1.143-4.987,1.975-6.855
		c0.532-1.197,0.958-2.433,1.27-3.692c0.793-3.159,0.879-6.476,0.221-9.699c-1.755-8.553-4.211-16.495-6.275-22.926
		c-1.003-3.125-1.909-5.889-2.602-8.195c0.985-1.369,1.956-2.649,2.854-3.858c1.366-1.86,2.552-3.574,3.316-5.171
		c0.85-1.746,1.212-3.37,0.812-4.945c-0.306-1.191-0.722-2.38-1.224-3.541c-0.235-0.55-0.49-1.088-0.755-1.629
		C47.88,97.459,43.68,92.85,43.68,92.85c5.488-4.545,17.157-6.581,17.157-6.581s0.188,0.626,0.507,1.647
		c1.258,4.1,4.631,14.582,6.573,16.154c2.421,1.951,35.841,3.272,36.361-0.591c0.509-3.793-8.672-17.909-9.017-18.44
		c-0.01-0.013-0.012-0.019-0.012-0.019c0.361,0.024,0.712,0.05,1.057,0.074c1.724,0.138,3.271,0.432,4.688,0.49
		c9.1,0.388,10.73,2.856,10.73,2.856C106.918,94.282,119.351,104.281,118.612,118.174z"/>
	<path class="st7" d="M90.768,63.46c0,0-0.053,6.073,0.296,11.769c-10.768,0.381-17.074-9.063-19.748-14.35L90.768,63.46z"/>
	<path class="st5" d="M94.7,68.624c0,0-25.406,2.038-26.432-13.803C67.243,38.98,63.273,28.575,79.45,26.604
		c16.178-1.971,19.724,3.869,21.352,9.073C102.431,40.881,101.282,67.686,94.7,68.624z"/>
	<path class="st1" d="M99.486,26.917c-4.234-4.515-7.139-3.28-8.712-1.742c-14.388-6.757-22.626,5.112-22.626,5.112
		c-0.977,11.475-8.76,18.509-8.76,18.509s4.817,2.568,15.329-0.86c3.211-1.047,5.978-3.553,8.276-6.524
		c-3.863,7.525-9.417,13.122-9.417,13.122c12.389-6.713,16.385-24.793,16.776-26.703c1.642,1.295,4.894,4.129,6.016,7.038
		c1.525,3.954,2.624,12.222,5.027,11.785C101.394,46.655,105.836,33.688,99.486,26.917z"/>
	<path class="st8" d="M160.993,454.509h-39.432c0,0-1.474-6.289,1.115-10.568c2.291-3.786,1.413-5.944-0.284-9.076
		c1.786,0.731,4.097,1.396,6.641,1.251c1.965-0.113,4.042-1.005,5.865-2.062c1.697,1.935,8.964,10.17,11.234,11.802
		C148.71,447.705,160.2,447.046,160.993,454.509z"/>
	<path class="st9" d="M49.489,44.603c0,0-11.815-23.518,4.696-32.814c16.51-9.297,28.595-5.647,37.679,5.723L49.489,44.603z"/>
	<path class="st10" d="M116.005,14.929c-3.4-5.449-15.287-4.57-29.638,1.308c-5.607,2.294-11.583,5.353-17.582,9.093
		c-7.456,4.651-13.953,9.743-19.05,14.722c-9.498,9.29-14.135,18.186-11.06,23.119c3.419,5.476,15.416,4.557,29.874-1.4
		c-1.174-1.28-2.822-2.36-4.557-1.261c-1.777,1.123-4.263,0.536-6.657-1.363c-1.767-0.29-3.076-1.002-3.795-2.15
		c-0.538-0.857-0.703-1.899-0.543-3.084c0.736-5.496,8.527-14.034,19.716-21.014c8.596-5.361,17.14-8.516,23.023-8.892
		c3.422-0.224,5.945,0.494,7.051,2.272c0.956,1.531,0.744,3.666-0.429,6.133c0.645,2.587,0.637,5.331,0.387,7.71
		C113.715,30.105,119.312,20.23,116.005,14.929z"/>
	<path class="st11" d="M77.596,168.2c-9.828,3.15-19.397,4.502-26.99,5.051c0.936-2.414,1.629-4.603,2.461-6.47
		c0.532-1.197,0.958-2.433,1.27-3.692c0.793-3.159,0.879-6.476,0.221-9.699c-1.755-8.553-6.412-23.143-8.476-29.574
		c5.514-12.298,11.211-5.59,11.211-5.59s16.665,7.474,23.759,21.251C88.147,153.254,86.077,165.484,77.596,168.2z"/>
	<path class="st3" d="M56.325,87.212c0,0,15.871,10.141,19.928,31.523l4.799-1.524c0,0-1.858-15.263-20.214-30.938L56.325,87.212z"
		/>
	<path class="st3" d="M112.376,119.277l-5.025,0.33c1.006-18.538-8.298-31.194-11.047-34.511c1.723,0.138,3.285,0.305,4.688,0.49
		C114.153,104.628,112.376,119.277,112.376,119.277z"/>
	<path class="st3" d="M118.612,199.629l3.566-1.536l-3.503-53.123c0,0-3.403-24.154-3.455-28.376
		c-0.05-4.222-3.459-6.279-3.459-6.279s-25.016,1.319-32.068,1.716c-7.052,0.396-6.343,4.409-6.343,4.409s3.074,12.835,3.385,14.156
		c4.748,20.172-22.399,32.496-22.399,32.496s-4.403,11.397-7.82,22.311c-5.857,18.714-0.626,45.563-0.626,45.563
		c0.889,14.261,2.512,74.86,4.207,92.792c0.613,6.499,1.15,11.124,1.369,12.971c0.004,0.009,0.004,0.013,0.004,0.018
		c0.067,0.564-0.13,1.096-0.416,1.588c-2.496,4.236-4.562,8.646-6.258,13.159c-16.639,44.34,2.563,98.946,2.563,98.946l4.982-2.008
		c0,0,10.928-60.77,19.806-87.616c1.508-4.554,2.953-8.132,4.277-10.27c3.859-6.23,7.443-16.411,10.694-28.519
		c6.146-22.892,11.093-52.673,14.384-75.659c0.454,0.021,5.188-32.218,17.05-46.43C118.659,199.809,118.674,199.708,118.612,199.629
		z"/>
	<g>
		<g>
			<path class="st11" d="M76.056,116.87c-0.353-1.109,0.261-2.294,1.37-2.646c1.11-0.353,2.295,0.261,2.647,1.37
				c0.352,1.109-0.262,2.294-1.371,2.646C77.593,118.593,76.408,117.979,76.056,116.87z"/>
			<path class="st6" d="M76.417,116.755c-0.352-1.109,0.262-2.294,1.37-2.646c1.109-0.352,2.294,0.262,2.647,1.371
				c0.352,1.109-0.262,2.294-1.371,2.646C77.954,118.478,76.769,117.864,76.417,116.755z"/>
		</g>
		<path class="st12" d="M77.119,116.115c0.001-0.169,0.138-0.306,0.307-0.306c0.169,0,0.306,0.138,0.306,0.307
			c0,0.169-0.137,0.306-0.307,0.306C77.255,116.422,77.119,116.285,77.119,116.115z"/>
		<path class="st12" d="M79.119,116.119c0-0.169,0.137-0.306,0.307-0.306c0.169,0,0.306,0.138,0.306,0.307
			c-0.001,0.169-0.138,0.306-0.307,0.306C79.255,116.425,79.119,116.288,79.119,116.119z"/>
	</g>
	<g>
		<g>
			<path class="st11" d="M107.076,114.193c-0.353-1.11,0.261-2.294,1.37-2.646c1.11-0.353,2.295,0.261,2.647,1.37
				c0.352,1.11-0.261,2.294-1.37,2.647C108.612,115.916,107.427,115.302,107.076,114.193z"/>
			<path class="st6" d="M107.436,114.078c-0.352-1.109,0.262-2.294,1.371-2.646c1.109-0.352,2.294,0.262,2.646,1.371
				c0.352,1.109-0.262,2.294-1.37,2.646C108.973,115.801,107.788,115.187,107.436,114.078z"/>
		</g>
		<path class="st12" d="M108.138,113.438c0-0.169,0.137-0.306,0.307-0.306c0.168,0,0.306,0.137,0.306,0.307
			c-0.001,0.169-0.138,0.306-0.307,0.306C108.275,113.744,108.138,113.607,108.138,113.438z"/>
		<path class="st12" d="M110.138,113.441c0-0.169,0.138-0.306,0.306-0.306c0.169,0,0.307,0.138,0.306,0.307
			c0,0.169-0.137,0.306-0.307,0.306C110.275,113.748,110.137,113.61,110.138,113.441z"/>
	</g>
	<path class="st1" d="M52.998,53.913c0,0-0.175,3.762,2.081,4.498c2.257,0.736-2.324,8.854-1.965,14.337
		c0.359,5.482,2.785,7.683,2.785,7.683s-1.165-3.016-0.514-4.881c0,0-0.104,3.879,2.728,5.836c2.832,1.957,2.072,3.649,2.072,3.649
		s6.401-1.917,6.581-6.718c0,0,0.274,2.17,0.053,3.069c0,0,5.528-4.15,5.791-8.933c0.264-4.782-4.351-8.818-6.453-8.891
		c-2.102-0.073-6.792-4.2-6.666-5.76C59.618,56.241,52.998,53.913,52.998,53.913z"/>
	<path class="st5" d="M53.026,179.918c0,0,7.603,4.799,8.717,4.757c2.609-0.098,7.759-5.795,12.047-3.161
		c4.288,2.634,8.488,7.026,7.003,8.782c-1.486,1.756-6.52-0.316-8.936,0.036c-2.416,0.351-8.371,3.312-12.572,1.919
		c-4.039-1.339-12.769-6.848-12.769-6.848L53.026,179.918z"/>
	<path class="st5" d="M43.68,92.85c0,0-28.306,33.431-37.674,52.265c0,0,11.264,24.522,47.775,44.444c0,0,1.621-0.355,4.1-2.125
		c3.863-2.759-0.418-4.78-1.264-5.327c-9.263-6-25.448-31.846-25.916-34.089c-0.469-2.243,20.285-22.356,26.593-29.793
		C63.601,110.789,53.485,89.02,43.68,92.85z"/>
	<path class="st13" d="M86.867,59.772c0,0,3.787,2.295,6.48,2.028c2.668-0.264,4.122-3.482,4.122-3.482S92.293,57.553,86.867,59.772
		z"/>
	<path class="st6" d="M43.68,92.85l-12.715,12.422c0,0,2.903,18.342,22.148,20.738c0,0,15.795-12.646,6.358-25.819
		C50.034,87.019,43.68,92.85,43.68,92.85z"/>
	<path class="st6" d="M111.723,88.439c0,0,9.796,4.53,12.958,20.348c0,0-0.182,5.026-7.731,7.612c0,0-9.917-26.715-8.506-27.96
		C109.856,87.194,111.723,88.439,111.723,88.439z"/>
	<path class="st5" d="M61.744,184.674c0,0,0.429-1.847,2.063-2.575c1.634-0.727,3.155-2.314,3.287-1.851
		c0.132,0.463,0.235,1.236-0.61,2.171C65.639,183.356,64.199,184.926,61.744,184.674z"/>
	<path class="st8" d="M76.329,454.509H36.897c0,0-0.945-6.009,1.115-10.568c1.973-4.375,5.065-6.363,4.324-11.657
		c2.507,2.579,6.589,5.468,12.29,4.702c0.699,1.132,4.509,7.193,6.842,8.869C64.045,447.705,75.535,447.046,76.329,454.509z"/>
</g>
</svg>
