<?xml version="1.0" encoding="utf-8"?>
<!-- Generator: Adobe Illustrator 24.3.0, SVG Export Plug-In . SVG Version: 6.00 Build 0)  -->
<svg version="1.1" id="Layer_1" xmlns="http://www.w3.org/2000/svg" xmlns:xlink="http://www.w3.org/1999/xlink" x="0px" y="0px"
	 viewBox="0 0 192.647 201" style="enable-background:new 0 0 192.647 201;" xml:space="preserve">
<style type="text/css">
	.st0{opacity:0.71;fill:#CBFFAC;}
	.st1{fill:#7AC01F;}
	.st2{opacity:0.71;fill:#7AC01F;}
	.st3{opacity:0.71;fill:#D8FF94;}
	.st4{fill:#DFFFAC;}
	.st5{fill:#FEFFDE;}
	.st6{fill:#FFFFFF;}
	.st7{opacity:0.35;fill:#A7FF0C;}
	.st8{fill:#562B00;stroke:#562B00;stroke-width:0.6458;stroke-miterlimit:10;}
	.st9{fill:#562B00;}
</style>
<g>
	<path class="st0" d="M93.239,18.894c0,0-65.279,29.486-48.55,84.744s77.801,27.948,88.717,7.604
		c11.153-20.785,5.07-51.202-11.66-54.244C105.017,53.957,84.621,35.624,93.239,18.894z"/>
	<path class="st1" d="M42.179,16.463c0,0,16.048,0.486,17.993,12.644s-0.973,10.698-0.973,10.698S36.344,38.832,42.179,16.463z"/>
	<path class="st1" d="M162.895,129.366c0,0-8.831,13.408-20.202,8.687s-8.598-6.44-8.598-6.44S146.911,112.665,162.895,129.366z"/>
	<path class="st1" d="M55.958,128.036c0,0,7.107,10.039,0.569,16.838s-6.992,4.342-6.992,4.342S39.585,134.788,55.958,128.036z"/>
	<path class="st2" d="M94.412,20.871l8.067-3.435c0,0-3.404-13.616,1.459-13.13s51.126-2.225,56.896,30.15
		C169.587,83.571,78.651,71.9,94.412,20.871z"/>
	<path class="st3" d="M97.13,19.381c0,0-60.3,30.15-44.252,83.155s74.63,26.809,85.101,7.294
		c10.698-19.938,4.863-49.115-11.185-52.033C110.746,54.88,88.863,35.428,97.13,19.381z"/>
	<circle class="st4" cx="137.005" cy="32.997" r="17.506"/>
	<circle class="st5" cx="140.896" cy="30.079" r="8.267"/>
	<circle class="st6" cx="145.029" cy="29.836" r="4.133"/>
	<path class="st7" d="M95.672,67.581c0,0-41.582,12.701-32.167,57.59c0,0,17.231,34.973,56.552,2.075
		c21.791-19.716,17.64-57.071-4.669-59.665C103.454,65.506,95.672,67.581,95.672,67.581z"/>
	<g id="Desenho">
		<g>
			<path class="st8" d="M95.796,137.819c-23.932,0-35.766-12.892-41.48-23.707c-6.112-11.569-6.608-22.985-6.626-23.466
				l-0.002-0.088c0-28.499,14.754-46.618,27.131-56.799c10.777-8.865,21.446-13.323,25.437-14.799v-7.502
				c-0.084-0.794-0.18-3.132,1.317-4.858c0.66-0.761,1.873-1.668,3.908-1.668c2.734,0,16.637,1.289,29.84,7.245
				c18.082,8.157,27.64,21.713,27.64,39.203v0.486l-0.195,0.445c-0.478,1.093-5.367,10.682-29.416,10.682
				c-20.696,0-29.498-10.471-31.483-17.41c-0.418-1.463,0.714-2.911,2.236-2.911h0c1.044,0,1.942,0.699,2.227,1.703
				c1.407,4.971,8.59,13.974,27.021,13.974c18.63,0,23.945-6.087,24.962-7.574c-0.213-15.446-8.588-27.004-24.901-34.363
				c-12.517-5.647-25.828-6.834-27.93-6.834c-0.26,0-0.383,0.048-0.399,0.065c-0.164,0.185-0.264,0.864-0.202,1.37l0.02,0.307
				v10.994l-1.626,0.511c-0.127,0.04-12.984,4.18-25.631,14.625c-16.782,13.861-25.298,31.71-25.311,53.057
				c0.035,0.692,0.658,11.236,6.163,21.573c7.453,13.997,20.003,21.094,37.3,21.094c22.154,0,34.688-17.028,35.619-33.849
				c0.695-12.548-5.409-25.965-20.614-27.655c-8.503-0.942-15.335,1.695-19.239,7.433c-3.601,5.294-4.121,12.441-1.293,17.785
				c2.255,4.262,6.326,6.61,11.462,6.61c8.324,0,11.147-4.417,12.088-7.05c1.343-3.756,0.412-8.183-2.167-10.297
				c-1.815-1.489-4.191-1.639-6.943-0.457c-1.063,0.456-2.302,0.057-2.897-0.935v0c-0.719-1.199-0.228-2.776,1.058-3.323
				c4.37-1.858,8.548-1.485,11.728,1.124c4.087,3.352,5.599,9.851,3.595,15.453c-2.302,6.438-8.302,10.131-16.462,10.131
				c-6.839,0-12.513-3.31-15.568-9.082c-3.611-6.823-2.984-15.893,1.558-22.57c2.848-4.187,9.707-10.984,23.592-9.437
				c18.222,2.024,25.555,17.796,24.739,32.528C135.001,118.583,120.835,137.819,95.796,137.819z"/>
		</g>
		<g>
			<path class="st9" d="M133.102,51.807c-10.423,0-18.903-8.48-18.903-18.903c0-10.423,8.48-18.903,18.903-18.903
				s18.903,8.48,18.903,18.903C152.005,43.327,143.525,51.807,133.102,51.807z M133.102,17.891c-8.278,0-15.012,6.734-15.012,15.012
				s6.734,15.013,15.012,15.013c8.278,0,15.012-6.735,15.012-15.013S141.38,17.891,133.102,17.891z"/>
		</g>
		<g>
			<path class="st9" d="M144.561,39.207c-3.51,0-6.365-2.856-6.365-6.365c0-3.51,2.856-6.365,6.365-6.365
				c3.509,0,6.365,2.856,6.365,6.365C150.926,36.351,148.071,39.207,144.561,39.207z M144.561,29.88
				c-1.633,0-2.961,1.329-2.961,2.961s1.328,2.961,2.961,2.961c1.633,0,2.961-1.328,2.961-2.961S146.194,29.88,144.561,29.88z"/>
		</g>
		<g>
			<path class="st8" d="M139.586,44.232c-6.28,0-11.39-5.11-11.39-11.39s5.11-11.39,11.39-11.39s11.39,5.11,11.39,11.39
				S145.866,44.232,139.586,44.232z M139.586,23.883c-4.94,0-8.959,4.019-8.959,8.959s4.019,8.959,8.959,8.959
				s8.959-4.019,8.959-8.959S144.526,23.883,139.586,23.883z"/>
		</g>
		<g>
			<path class="st9" d="M25.378,190.961c-3.075,0-5.842-0.437-8.302-1.312c-2.459-0.875-4.565-2.247-6.314-4.115
				c-1.75-1.869-3.098-4.281-4.044-7.238c-0.947-2.955-1.419-6.539-1.419-10.749v-14.829c0-3.216,0.497-5.748,1.49-7.593
				c0.946-1.749,2.388-3.002,4.327-3.76c1.136-0.473,2.484-0.781,4.045-0.922c0.993-0.142,2.093-0.224,3.3-0.248
				c1.206-0.023,2.235-0.036,3.086-0.036c2.459,0,4.588,0.344,6.386,1.029c1.798,0.686,3.3,1.596,4.506,2.732
				c1.206,1.135,2.104,2.437,2.696,3.902c0.591,1.466,0.887,3.005,0.887,4.611c0,1.515-0.284,2.922-0.851,4.223
				c-0.568,1.301-1.373,2.495-2.413,3.582c1.419,0.522,2.732,1.207,3.938,2.058c1.206,0.851,2.258,1.88,3.157,3.086
				c0.898,1.206,1.608,2.59,2.129,4.151c0.52,1.562,0.781,3.289,0.781,5.18c0,2.128-0.415,4.162-1.242,6.102
				c-0.828,1.94-1.999,3.666-3.512,5.179c-1.514,1.514-3.334,2.721-5.463,3.618C30.415,190.511,28.027,190.961,25.378,190.961z
				 M25.378,183.937c1.514,0,2.814-0.248,3.902-0.744c1.088-0.497,1.975-1.159,2.661-1.987c0.685-0.826,1.182-1.797,1.49-2.909
				c0.307-1.11,0.461-2.306,0.461-3.583c0-2.082-0.354-3.796-1.064-5.144c-0.71-1.348-1.621-2.388-2.732-3.122
				c-1.112-0.732-2.342-1.241-3.69-1.525c-1.348-0.283-2.637-0.401-3.867-0.354c-1.135,0.048-2.212,0.071-3.228,0.071
				c-1.018,0-1.928,0-2.732,0c-0.899,0-1.751-0.023-2.554-0.071v3.05c-0.095,3.17,0.094,5.808,0.568,7.912
				c0.472,2.106,1.206,3.773,2.199,5.002c0.994,1.23,2.211,2.105,3.654,2.625C21.889,183.678,23.533,183.937,25.378,183.937z
				 M14.026,158.749h6.031c2.554,0,4.552-0.472,5.995-1.418c1.442-0.946,2.164-2.555,2.164-4.826c0-1.134-0.202-2.093-0.603-2.873
				c-0.402-0.78-0.922-1.419-1.562-1.916c-0.638-0.497-1.36-0.863-2.164-1.1c-0.805-0.236-1.586-0.354-2.342-0.354
				c-0.567,0-1.278,0-2.129,0c-0.851,0-1.679,0.106-2.482,0.32c-0.806,0.212-1.49,0.556-2.058,1.028
				c-0.568,0.474-0.851,1.182-0.851,2.128V158.749z"/>
			<path class="st9" d="M62.06,183.796c-0.237,0.331-0.638,0.603-1.206,0.816c-0.567,0.212-1.135,0.272-1.702,0.177
				c-0.568-0.094-1.065-0.391-1.49-0.888c-0.426-0.497-0.638-1.312-0.638-2.448v-16.957c0-1.419,0.011-2.565,0.036-3.441
				c0.023-0.874,0.059-1.572,0.106-2.093c0.047-0.568,0.094-1.017,0.142-1.348c-2.934,0-5.156,0.615-6.67,1.845
				c-1.514,1.23-2.27,3.264-2.27,6.102l-0.071,16.744c0,1.183,0.177,2.318,0.532,3.406c0.354,1.088,0.898,2.034,1.632,2.838
				c0.733,0.805,1.643,1.432,2.732,1.88c1.087,0.449,2.365,0.603,3.831,0.461c1.514-0.095,2.626-0.532,3.334-1.312
				c0.71-0.781,1.182-1.596,1.419-2.448C62.06,186.137,62.154,185.026,62.06,183.796z"/>
			<path class="st9" d="M92.356,161.942c1.466,1.514,2.613,3.3,3.441,5.357c0.827,2.058,1.242,4.269,1.242,6.634
				c0,2.366-0.379,4.576-1.135,6.634c-0.758,2.058-1.822,3.844-3.193,5.356c-1.373,1.562-3.04,2.792-5.003,3.69
				c-1.963,0.898-4.15,1.348-6.563,1.348c-2.176,0-4.221-0.45-6.137-1.348c-1.916-0.898-3.608-2.128-5.073-3.69
				c-1.419-1.513-2.543-3.299-3.37-5.356c-0.828-2.058-1.242-4.268-1.242-6.634c0-2.365,0.366-4.576,1.1-6.634
				c0.733-2.058,1.785-3.843,3.158-5.357c1.371-1.561,3.039-2.79,5.002-3.689c1.962-0.898,4.151-1.349,6.563-1.349
				c2.223,0,4.292,0.45,6.208,1.349C89.27,159.152,90.936,160.381,92.356,161.942z M81.145,184.86c0.614,0,1.336-0.142,2.164-0.426
				c0.826-0.284,1.62-0.827,2.376-1.632c0.756-0.803,1.395-1.916,1.916-3.334c0.52-1.419,0.781-3.264,0.781-5.534
				c0-2.27-0.261-4.126-0.781-5.57c-0.521-1.442-1.16-2.554-1.916-3.334c-0.757-0.781-1.55-1.312-2.376-1.597
				c-0.828-0.283-1.55-0.426-2.164-0.426c-0.615,0-1.337,0.142-2.164,0.426c-0.829,0.285-1.621,0.816-2.377,1.597
				c-0.758,0.781-1.396,1.892-1.916,3.334c-0.521,1.444-0.78,3.3-0.78,5.57c0,2.27,0.259,4.115,0.78,5.534
				c0.52,1.418,1.158,2.531,1.916,3.334c0.756,0.805,1.548,1.348,2.377,1.632C79.808,184.718,80.53,184.86,81.145,184.86z"/>
			<path class="st9" d="M146.705,172.301c0-1.987-0.202-3.584-0.603-4.789c-0.402-1.206-0.935-2.152-1.596-2.838
				c-0.663-0.685-1.396-1.146-2.2-1.383c-0.805-0.237-1.608-0.355-2.412-0.355c-0.805,0-1.596,0.118-2.377,0.355
				c-0.78,0.237-1.49,0.698-2.129,1.383c-0.638,0.686-1.159,1.632-1.561,2.838c-0.402,1.206-0.603,2.802-0.603,4.789v10.998
				c0,1.419,0.023,2.578,0.071,3.477c0.046,0.898,0.094,1.609,0.142,2.129c0.046,0.567,0.094,0.993,0.142,1.277
				c-2.933,0-5.179-0.614-6.74-1.845c-1.561-1.23-2.342-3.239-2.342-6.031l0.071-10.004c0-1.987-0.202-3.584-0.604-4.789
				c-0.402-1.206-0.934-2.152-1.596-2.838c-0.662-0.685-1.395-1.146-2.199-1.383c-0.805-0.237-1.609-0.355-2.413-0.355
				c-0.805,0-1.596,0.118-2.376,0.355c-0.781,0.237-1.49,0.698-2.129,1.383c-0.638,0.686-1.148,1.632-1.525,2.838
				c-0.379,1.206-0.568,2.802-0.568,4.789v10.998c0,1.419,0.012,2.578,0.036,3.477c0.023,0.898,0.059,1.609,0.107,2.129
				c0.046,0.567,0.094,0.993,0.142,1.277c-2.934,0-5.179-0.614-6.741-1.845c-1.561-1.23-2.341-3.239-2.341-6.031l0.07-10.004
				c0-3.168,0.461-5.758,1.384-7.769c0.922-2.01,2.116-3.583,3.584-4.719c1.466-1.134,3.109-1.903,4.931-2.305
				c1.821-0.402,3.63-0.604,5.428-0.604c1.987,0,3.95,0.238,5.89,0.71c1.938,0.474,3.665,1.373,5.179,2.696
				c1.514-1.323,3.239-2.222,5.18-2.696c1.938-0.472,3.902-0.71,5.889-0.71c1.797,0,3.618,0.202,5.463,0.604
				c1.845,0.402,3.512,1.171,5.002,2.305c1.49,1.136,2.696,2.709,3.618,4.719c0.922,2.011,1.384,4.601,1.384,7.769v15.34
				c0.165,4.654,1.765,6.16,3.674,7.017c0.63,0.283,0.552,1.214-0.121,1.369c-3.889,0.893-12.28-0.035-12.28-8.634L146.705,172.301z
				"/>
			<path class="st9" d="M165.152,172.088c1.277-0.804,2.719-1.407,4.328-1.809c1.607-0.402,3.287-0.603,5.038-0.603
				c2.459,0,4.801,0.354,7.024,1.064c-0.142-1.466-0.45-2.767-0.922-3.902c-0.615-1.466-1.538-2.53-2.767-3.193
				c-0.473-0.237-0.982-0.414-1.525-0.532c-0.544-0.118-1.171-0.177-1.88-0.177h-0.78c-0.663,0.047-1.325,0.154-1.987,0.319
				c-0.662,0.167-1.325,0.368-1.986,0.604c-0.663,0.238-1.325,0.438-1.986,0.603c-0.663,0.166-1.302,0.248-1.916,0.248
				c-0.663,0-1.302-0.142-1.916-0.426c-0.567-0.33-1.064-0.875-1.49-1.632l-0.142-0.283l0.142-0.214
				c1.419-1.514,3.087-2.732,5.002-3.653c1.916-0.922,4.009-1.456,6.28-1.597c0.236-0.046,0.436-0.07,0.603-0.07
				c0.166,0,0.366,0,0.603,0c2.175,0,4.162,0.39,5.96,1.171c1.798,0.78,3.358,1.856,4.683,3.228
				c2.696,2.934,4.091,6.788,4.186,11.566v0.568c0,4.92-1.254,8.916-3.761,11.99c-1.23,1.514-2.708,2.744-4.434,3.69
				c-1.728,0.946-3.655,1.536-5.783,1.774c-0.284,0.047-0.568,0.071-0.852,0.071c-0.283,0-0.592,0-0.922,0
				c-0.993,0-2.034-0.084-3.122-0.248c-1.089-0.166-2.153-0.484-3.193-0.958c-1.089-0.426-2.082-0.981-2.98-1.668
				c-0.899-0.685-1.656-1.572-2.27-2.66c-0.899-1.371-1.373-3.051-1.419-5.038v-0.426c0-1.845,0.378-3.382,1.135-4.612
				C162.763,174.052,163.779,172.988,165.152,172.088z M179.839,175.494c-0.615-0.094-1.312-0.189-2.093-0.283
				c-0.781-0.094-1.573-0.142-2.377-0.142c-0.662,0-1.302,0.036-1.915,0.106c-0.615,0.071-1.183,0.202-1.703,0.391
				c-1.183,0.379-2.082,0.97-2.696,1.774c-0.238,0.284-0.426,0.603-0.568,0.958c-0.142,0.355-0.237,0.744-0.283,1.171
				c-0.048,0.142-0.071,0.354-0.071,0.638c0,0.474,0.071,0.982,0.213,1.525c0.142,0.545,0.426,1.053,0.851,1.525
				c0.378,0.474,0.934,0.876,1.668,1.207c0.733,0.331,1.714,0.496,2.944,0.496c0.378,0,0.662-0.023,0.851-0.07
				c1.324-0.046,2.484-0.426,3.477-1.136c0.473-0.283,0.875-0.626,1.206-1.028c0.33-0.401,0.614-0.84,0.851-1.313
				c0.52-0.898,0.875-1.82,1.065-2.766c0.188-0.946,0.283-1.821,0.283-2.626c-0.047,0-0.083-0.011-0.106-0.035
				c-0.025-0.023-0.06-0.036-0.107-0.036c-0.19-0.046-0.402-0.094-0.638-0.142C180.453,175.66,180.169,175.589,179.839,175.494z"/>
		</g>
		<g>
			<path class="st9" d="M48.696,155.159c-0.411,0-0.827-0.11-1.204-0.339l-1.093-0.662l1.591-1.911
				c-0.147-0.955-0.216-1.997-0.21-3.169c0.028-5.394,2.159-9.558,6.001-11.725c2.575-1.452,5.815-2.281,8.909-2.281
				c0.046,0,0.091,0.001,0.137,0.001c0.786,0.006,1.472,0.569,1.631,1.339c0.791,3.805,0.567,9.212-2.433,12.977
				c-2.522,2.989-6.809,4.809-11.563,4.942C50.007,154.873,49.358,155.159,48.696,155.159z M61.506,138.374
				c-0.47,0.047-0.976,0.119-1.526,0.216c-3.095,0.546-7.062,2.081-8.386,6.297c-0.58,1.848-0.759,4.029-0.509,6.173
				c3.606-0.276,6.669-1.623,8.44-3.721C61.212,145.22,61.935,141.915,61.506,138.374z"/>
			<path class="st9" d="M48.696,155.341c-0.455,0-0.904-0.126-1.299-0.365l-1.274-0.773l1.674-2.01
				c-0.14-0.944-0.205-1.964-0.199-3.116c0.028-5.462,2.192-9.682,6.094-11.883c2.597-1.465,5.877-2.305,8.998-2.305l0.137,0
				c0.873,0.008,1.633,0.632,1.81,1.485c0.799,3.846,0.571,9.314-2.468,13.127c-2.521,2.988-6.859,4.856-11.62,5.009
				C50.073,155.04,49.403,155.341,48.696,155.341z M46.675,154.112l0.912,0.553c0.338,0.204,0.721,0.312,1.11,0.312
				c0.626,0,1.219-0.278,1.627-0.762l0.052-0.063l0.082-0.002c4.69-0.132,8.963-1.956,11.429-4.878
				c2.957-3.711,3.176-9.057,2.393-12.822c-0.142-0.686-0.754-1.188-1.454-1.194l-0.135,0c-3.061,0-6.275,0.823-8.819,2.257
				c-3.782,2.134-5.88,6.242-5.908,11.567c-0.006,1.165,0.062,2.193,0.208,3.14l0.013,0.081L46.675,154.112z M50.924,151.255
				l-0.02-0.174c-0.252-2.166-0.069-4.385,0.516-6.249c1.352-4.303,5.384-5.867,8.528-6.421c0.562-0.099,1.065-0.17,1.54-0.217
				l0.178-0.018l0.021,0.177c0.44,3.62-0.297,6.937-2.02,9.099c-1.798,2.131-4.92,3.511-8.569,3.79L50.924,151.255z M61.345,138.575
				c-0.413,0.046-0.851,0.11-1.334,0.195c-3.045,0.537-6.947,2.043-8.243,6.172c-0.555,1.766-0.738,3.862-0.522,5.922
				c3.476-0.301,6.435-1.624,8.139-3.643C61.016,145.174,61.728,142.029,61.345,138.575z"/>
		</g>
		<path class="st9" d="M63.465,42.062c-6.76-0.19-12.856-2.778-16.443-7.029c-4.266-5.353-4.584-13.044-3.459-18.454
			c0.227-1.095,1.203-1.895,2.32-1.904c0.065,0,0.129-0.001,0.194-0.001c4.4,0,9.007,1.178,12.669,3.243
			c5.463,3.082,8.494,9.004,8.534,16.674c0.008,1.666-0.09,3.148-0.298,4.506l2.263,2.717l-1.554,0.942
			c-0.537,0.325-1.128,0.482-1.713,0.482C65.036,43.238,64.114,42.831,63.465,42.062z M50.579,32.116
			c2.518,2.985,6.874,4.9,12.002,5.292c0.355-3.05,0.101-6.152-0.724-8.779c-1.883-5.995-7.524-8.178-11.926-8.954
			c-0.782-0.137-1.501-0.239-2.17-0.307C47.151,24.404,48.179,29.104,50.579,32.116z"/>
		<path class="st9" d="M118.265,129.985c-0.372-0.451,0.922-1.904,0.831-2.525l10.122-0.018l3.536,0.018
			c0.916-1.025,1.997-2.043,3.288-3.096c5.945-4.847,12.442-6.274,18.295-4.018c3.923,1.513,7.762,4.319,10.56,7.715
			c0.041,0.05,0.081,0.1,0.123,0.151c0.703,0.868,0.706,2.13,0.006,3.001c-3.46,4.308-9.598,8.954-16.442,9.066
			c-5.561-0.065-11.43-3.118-15.875-8.214c-0.906-0.01-15.291,0-15.291,0S118.324,130.058,118.265,129.985z M160.202,129.747
			c-0.477-0.474-1.013-0.964-1.617-1.48c-3.398-2.903-8.67-5.869-14.494-3.509c-2.552,1.034-5.108,2.81-7.236,5.024
			c3.564,3.708,7.812,5.852,11.717,5.897C152.423,135.616,156.705,133.421,160.202,129.747z"/>
	</g>
</g>
</svg>
