<?xml version="1.0" encoding="utf-8"?>
<!-- Generator: Adobe Illustrator 24.3.0, SVG Export Plug-In . SVG Version: 6.00 Build 0)  -->
<svg version="1.1" id="Layer_1" xmlns="http://www.w3.org/2000/svg" xmlns:xlink="http://www.w3.org/1999/xlink" x="0px" y="0px"
	 viewBox="0 0 841.89 319.76" style="enable-background:new 0 0 841.89 319.76;" xml:space="preserve">
<style type="text/css">
	.st0{fill:#7AC01F;}
	.st1{fill:#562B00;}
</style>
<g>
	<path class="st0" d="M233.12,3.04c0,0,32.2,45.48,2.58,76.28s-31.68,19.67-31.68,19.67S158.94,33.63,233.12,3.04z"/>
	<g>
		<path class="st1" d="M94.58,288.12c-13.93,0-26.47-1.98-37.61-5.94c-11.14-3.97-20.68-10.18-28.61-18.64
			c-7.93-8.47-14.04-19.39-18.32-32.79c-4.29-13.39-6.43-29.62-6.43-48.7v-67.18c0-14.57,2.25-26.04,6.75-34.4
			c4.28-7.92,10.82-13.6,19.6-17.03c5.15-2.14,11.25-3.54,18.33-4.18c4.5-0.64,9.48-1.02,14.95-1.13
			c5.46-0.11,10.12-0.16,13.98-0.16c11.14,0,20.79,1.56,28.93,4.66c8.14,3.11,14.95,7.23,20.41,12.38
			c5.46,5.14,9.53,11.04,12.21,17.68c2.68,6.64,4.02,13.61,4.02,20.89c0,6.86-1.29,13.24-3.86,19.13
			c-2.57,5.89-6.22,11.3-10.93,16.23c6.43,2.36,12.38,5.47,17.84,9.33c5.47,3.86,10.23,8.52,14.3,13.98
			c4.07,5.47,7.29,11.73,9.64,18.81c2.36,7.07,3.54,14.9,3.54,23.47c0,9.64-1.88,18.86-5.63,27.64
			c-3.75,8.79-9.06,16.61-15.91,23.46c-6.86,6.86-15.11,12.33-24.75,16.39C117.4,286.09,106.58,288.12,94.58,288.12z M94.58,256.3
			c6.86,0,12.75-1.12,17.68-3.37s8.95-5.25,12.06-9c3.1-3.74,5.35-8.14,6.75-13.18c1.39-5.03,2.09-10.45,2.09-16.23
			c0-9.43-1.61-17.2-4.82-23.31s-7.35-10.82-12.38-14.15c-5.04-3.32-10.61-5.62-16.72-6.91c-6.11-1.28-11.95-1.82-17.52-1.61
			c-5.14,0.22-10.02,0.32-14.63,0.32c-4.61,0-8.73,0-12.38,0c-4.07,0-7.93-0.11-11.57-0.32v13.82c-0.43,14.36,0.43,26.31,2.57,35.84
			c2.14,9.54,5.46,17.09,9.96,22.66c4.5,5.57,10.02,9.54,16.55,11.89C78.77,255.13,86.22,256.3,94.58,256.3z M43.15,142.19h27.32
			c11.57,0,20.62-2.14,27.16-6.43c6.53-4.28,9.81-11.58,9.81-21.86c0-5.14-0.92-9.48-2.73-13.02c-1.82-3.53-4.18-6.43-7.07-8.68
			c-2.89-2.25-6.16-3.91-9.8-4.98c-3.65-1.07-7.18-1.61-10.61-1.61c-2.57,0-5.79,0-9.64,0s-7.61,0.48-11.25,1.45
			c-3.65,0.96-6.75,2.52-9.33,4.66c-2.57,2.15-3.86,5.36-3.86,9.64V142.19z"/>
		<path class="st1" d="M260.77,255.66c-1.07,1.5-2.89,2.73-5.47,3.7c-2.57,0.96-5.14,1.23-7.71,0.8c-2.57-0.43-4.82-1.77-6.75-4.02
			c-1.93-2.25-2.89-5.95-2.89-11.09v-76.83c0-6.43,0.05-11.62,0.16-15.59c0.11-3.96,0.27-7.12,0.48-9.48
			c0.21-2.57,0.43-4.61,0.65-6.11c-13.29,0-23.36,2.79-30.22,8.36c-6.86,5.57-10.29,14.79-10.29,27.65l-0.32,75.86
			c0,5.36,0.8,10.5,2.41,15.43c1.61,4.93,4.07,9.21,7.39,12.86c3.32,3.65,7.44,6.49,12.38,8.52c4.93,2.03,10.71,2.73,17.36,2.09
			c6.86-0.43,11.9-2.41,15.11-5.95c3.21-3.54,5.36-7.23,6.43-11.09C260.77,266.27,261.19,261.24,260.77,255.66z"/>
		<path class="st1" d="M398.02,156.65c6.64,6.86,11.84,14.95,15.59,24.27c3.75,9.32,5.63,19.34,5.63,30.06
			c0,10.72-1.72,20.73-5.14,30.06c-3.43,9.32-8.25,17.41-14.46,24.27c-6.22,7.07-13.77,12.65-22.67,16.72
			c-8.89,4.07-18.8,6.11-29.73,6.11c-9.86,0-19.12-2.04-27.8-6.11c-8.68-4.07-16.34-9.64-22.98-16.72
			c-6.43-6.85-11.52-14.95-15.27-24.27c-3.75-9.32-5.63-19.34-5.63-30.06c0-10.71,1.66-20.73,4.98-30.06
			c3.32-9.32,8.09-17.41,14.31-24.27c6.21-7.07,13.77-12.64,22.66-16.71c8.89-4.07,18.81-6.11,29.73-6.11
			c10.07,0,19.45,2.04,28.13,6.11C384.04,144.01,391.59,149.58,398.02,156.65z M347.23,260.48c2.78,0,6.05-0.64,9.81-1.93
			c3.74-1.29,7.34-3.75,10.77-7.39c3.42-3.64,6.32-8.68,8.68-15.11c2.36-6.43,3.54-14.79,3.54-25.07s-1.18-18.69-3.54-25.23
			c-2.36-6.53-5.26-11.57-8.68-15.11c-3.43-3.54-7.02-5.95-10.77-7.24c-3.75-1.28-7.02-1.93-9.81-1.93c-2.79,0-6.06,0.65-9.8,1.93
			c-3.76,1.29-7.35,3.7-10.77,7.24c-3.43,3.54-6.32,8.57-8.68,15.11c-2.36,6.54-3.53,14.95-3.53,25.23s1.17,18.64,3.53,25.07
			c2.36,6.43,5.25,11.47,8.68,15.11c3.42,3.65,7.01,6.11,10.77,7.39C341.18,259.84,344.45,260.48,347.23,260.48z"/>
		<path class="st1" d="M644.25,203.59c0-9-0.92-16.24-2.73-21.7c-1.82-5.47-4.24-9.75-7.23-12.86c-3-3.1-6.32-5.19-9.97-6.26
			c-3.65-1.07-7.29-1.61-10.93-1.61c-3.65,0-7.23,0.54-10.77,1.61c-3.53,1.07-6.75,3.16-9.64,6.26c-2.89,3.11-5.25,7.39-7.07,12.86
			c-1.82,5.46-2.73,12.69-2.73,21.7v49.82c0,6.43,0.11,11.68,0.32,15.75c0.21,4.07,0.42,7.29,0.64,9.64
			c0.21,2.57,0.43,4.5,0.64,5.78c-13.29,0-23.46-2.78-30.54-8.36c-7.07-5.57-10.61-14.68-10.61-27.32l0.32-45.32
			c0-9-0.92-16.24-2.73-21.7c-1.82-5.47-4.23-9.75-7.23-12.86c-3-3.1-6.32-5.19-9.96-6.26c-3.65-1.07-7.29-1.61-10.93-1.61
			c-3.65,0-7.23,0.54-10.77,1.61c-3.54,1.07-6.75,3.16-9.64,6.26c-2.89,3.11-5.2,7.39-6.91,12.86c-1.72,5.46-2.57,12.69-2.57,21.7
			v49.82c0,6.43,0.05,11.68,0.16,15.75c0.11,4.07,0.27,7.29,0.48,9.64c0.21,2.57,0.42,4.5,0.64,5.78c-13.29,0-23.46-2.78-30.54-8.36
			c-7.07-5.57-10.6-14.68-10.6-27.32l0.32-45.32c0-14.35,2.09-26.09,6.27-35.2c4.18-9.1,9.59-16.23,16.24-21.38
			c6.64-5.14,14.09-8.62,22.34-10.44c8.25-1.82,16.45-2.73,24.59-2.73c9,0,17.89,1.08,26.68,3.21c8.78,2.15,16.6,6.22,23.46,12.21
			c6.86-5.99,14.68-10.07,23.47-12.21c8.78-2.14,17.68-3.21,26.68-3.21c8.14,0,16.39,0.92,24.75,2.73
			c8.36,1.82,15.91,5.3,22.66,10.44c6.75,5.15,12.21,12.27,16.39,21.38c4.18,9.11,6.27,20.85,6.27,35.2v69.5
			c0.75,21.09,8,27.91,16.65,31.79c2.85,1.28,2.5,5.5-0.55,6.2c-17.62,4.04-55.64-0.16-55.64-39.12L644.25,203.59z"/>
		<path class="st1" d="M727.83,202.62c5.78-3.64,12.32-6.37,19.61-8.2c7.28-1.82,14.89-2.73,22.82-2.73
			c11.14,0,21.75,1.61,31.82,4.82c-0.64-6.64-2.04-12.54-4.18-17.68c-2.79-6.64-6.97-11.46-12.54-14.46
			c-2.14-1.07-4.45-1.88-6.91-2.41c-2.46-0.53-5.3-0.8-8.52-0.8h-3.53c-3,0.21-6,0.7-9,1.44c-3,0.76-6,1.67-9,2.73
			c-3,1.08-6,1.98-9,2.73c-3,0.75-5.9,1.13-8.68,1.13c-3,0-5.9-0.64-8.68-1.93c-2.57-1.5-4.82-3.97-6.75-7.39l-0.64-1.28l0.64-0.97
			c6.43-6.86,13.98-12.38,22.66-16.55c8.68-4.18,18.16-6.59,28.45-7.24c1.07-0.21,1.98-0.32,2.73-0.32c0.75,0,1.66,0,2.73,0
			c9.85,0,18.86,1.77,27,5.3c8.14,3.53,15.22,8.41,21.22,14.62c12.21,13.29,18.54,30.75,18.97,52.4v2.57
			c0,22.29-5.68,40.39-17.04,54.32c-5.57,6.86-12.27,12.43-20.09,16.72c-7.83,4.29-16.56,6.96-26.2,8.04
			c-1.29,0.21-2.57,0.32-3.86,0.32c-1.28,0-2.68,0-4.18,0c-4.5,0-9.21-0.38-14.14-1.13c-4.93-0.75-9.75-2.19-14.46-4.34
			c-4.93-1.93-9.43-4.45-13.5-7.56c-4.07-3.1-7.5-7.12-10.29-12.05c-4.07-6.21-6.22-13.82-6.43-22.82v-1.93
			c0-8.36,1.71-15.32,5.14-20.89C717.01,211.52,721.61,206.7,727.83,202.62z M794.37,218.05c-2.79-0.43-5.95-0.86-9.48-1.28
			c-3.54-0.43-7.13-0.65-10.77-0.65c-3,0-5.9,0.16-8.68,0.48c-2.79,0.32-5.36,0.92-7.72,1.77c-5.36,1.72-9.43,4.4-12.21,8.04
			c-1.08,1.29-1.93,2.73-2.57,4.34c-0.64,1.61-1.07,3.37-1.28,5.3c-0.22,0.64-0.32,1.61-0.32,2.89c0,2.15,0.32,4.45,0.96,6.91
			c0.64,2.47,1.93,4.77,3.86,6.91c1.71,2.15,4.23,3.97,7.56,5.47c3.32,1.5,7.77,2.25,13.34,2.25c1.71,0,3-0.11,3.86-0.32
			c6-0.21,11.25-1.93,15.75-5.15c2.14-1.28,3.97-2.84,5.47-4.66c1.5-1.82,2.78-3.8,3.86-5.95c2.36-4.07,3.97-8.25,4.82-12.53
			c0.85-4.29,1.28-8.25,1.28-11.9c-0.21,0-0.38-0.05-0.48-0.16c-0.11-0.11-0.27-0.17-0.48-0.17c-0.86-0.21-1.82-0.43-2.89-0.64
			C797.15,218.8,795.87,218.48,794.37,218.05z"/>
	</g>
	<g>
		<path class="st1" d="M200.22,125.92c-1.86,0-3.75-0.5-5.46-1.53l-4.95-3l7.21-8.66c-0.67-4.33-0.98-9.05-0.95-14.36
			c0.13-24.44,9.78-43.3,27.19-53.12c11.67-6.58,26.34-10.33,40.36-10.33c0.21,0,0.41,0,0.62,0c3.56,0.03,6.67,2.58,7.39,6.07
			c3.58,17.24,2.57,41.74-11.02,58.79c-11.43,13.54-30.85,21.79-52.38,22.39C206.16,124.63,203.22,125.92,200.22,125.92z
			 M258.26,49.88c-2.13,0.21-4.42,0.54-6.91,0.98c-14.02,2.47-31.99,9.43-37.99,28.53c-2.63,8.37-3.44,18.25-2.31,27.97
			c16.34-1.25,30.21-7.35,38.24-16.86C256.93,80.89,260.2,65.92,258.26,49.88z"/>
		<path class="st1" d="M200.22,126.75c-2.06,0-4.1-0.57-5.89-1.65l-5.77-3.5l7.59-9.11c-0.63-4.28-0.93-8.9-0.9-14.12
			c0.13-24.74,9.93-43.87,27.61-53.84c11.76-6.64,26.62-10.44,40.77-10.44l0.62,0c3.95,0.03,7.4,2.86,8.2,6.73
			c3.62,17.42,2.59,42.2-11.18,59.47c-11.42,13.54-31.08,22-52.65,22.69C206.46,125.38,203.42,126.75,200.22,126.75z M191.06,121.18
			l4.13,2.5c1.53,0.93,3.27,1.41,5.03,1.41c2.84,0,5.52-1.26,7.37-3.45l0.24-0.28l0.37-0.01c21.25-0.6,40.61-8.86,51.78-22.1
			c13.4-16.81,14.39-41.03,10.84-58.09c-0.64-3.11-3.41-5.38-6.59-5.41l-0.61,0c-13.87,0-28.43,3.73-39.96,10.23
			c-17.14,9.67-26.64,28.28-26.77,52.41c-0.03,5.28,0.28,9.93,0.94,14.23l0.06,0.37L191.06,121.18z M210.31,108.24l-0.09-0.79
			c-1.14-9.81-0.31-19.86,2.34-28.31c6.12-19.49,24.39-26.58,38.64-29.09c2.55-0.45,4.83-0.77,6.98-0.99l0.8-0.08l0.1,0.8
			c1.99,16.4-1.34,31.43-9.15,41.23c-8.15,9.66-22.29,15.91-38.82,17.17L210.31,108.24z M257.53,50.79
			c-1.87,0.21-3.86,0.5-6.04,0.88c-13.8,2.43-31.47,9.26-37.35,27.96c-2.51,8-3.35,17.5-2.36,26.83
			c15.75-1.36,29.15-7.36,36.87-16.5C256.04,80.68,259.26,66.44,257.53,50.79z"/>
	</g>
</g>
</svg>
